<?xml version="1.0" encoding="utf-8"?>
<!-- Generator: Adobe Illustrator 16.0.4, SVG Export Plug-In . SVG Version: 6.00 Build 0)  -->
<!DOCTYPE svg PUBLIC "-//W3C//DTD SVG 1.1 Tiny//EN" "http://www.w3.org/Graphics/SVG/1.1/DTD/svg11-tiny.dtd">
<svg version="1.1" baseProfile="tiny" id="Layer_1" xmlns="http://www.w3.org/2000/svg" xmlns:xlink="http://www.w3.org/1999/xlink"
	 x="0px" y="0px" width="806.522px" height="189.239px" viewBox="0 0 806.522 189.239" xml:space="preserve">
<g>
	<path fill="#E76E0A" d="M229.235,85.505H246.8c6.305,0,10.583-1.308,12.835-3.924c2.251-2.615,3.378-8.007,3.378-16.174V26.839
		h15.538v41.822c0,4.977-0.515,9.164-1.544,12.561c-1.03,3.397-2.622,6.261-4.777,8.589c-2.478,2.712-5.356,4.618-8.637,5.718
		s-8.22,1.651-14.814,1.651h-19.543V85.505z"/>
	<path fill="#E76E0A" d="M321.332,39.089c-5.398,0-9.471,1.34-12.218,4.02c-2.747,2.68-4.266,6.779-4.554,12.298l41.256,0.048v12.25
		h-41.353c0.032,6.125,1.341,10.527,3.928,13.207c2.586,2.68,6.9,4.02,12.941,4.02h24.484v12.25h-25.207
		c-5.562,0-9.935-0.47-13.117-1.412c-3.184-0.94-6.173-2.528-8.97-4.761c-3.633-2.871-6.358-6.611-8.174-11.221
		c-1.817-4.609-2.725-10.121-2.725-16.533c0-12.441,2.716-21.621,8.149-27.539c5.433-5.917,13.857-8.876,25.271-8.876h24.773v12.25
		H321.332z"/>
	<path fill="#E76E0A" d="M387.024,97.181c-6.627,0-11.549-0.55-14.766-1.651c-3.217-1.101-6.097-3.006-8.637-5.718
		c-2.349-2.424-4.005-5.168-4.97-8.23s-1.448-7.369-1.448-12.92V26.839h14.911v41.344c0,4.115,0.185,7.01,0.555,8.685
		c0.37,1.675,1.005,3.023,1.906,4.043c1.415,1.659,3.152,2.84,5.211,3.541c2.058,0.702,4.905,1.053,8.541,1.053h17.564v11.676
		H387.024z"/>
	<path fill="#E76E0A" d="M441.985,97.181c-6.627,0-11.549-0.55-14.766-1.651c-3.217-1.101-6.097-3.006-8.637-5.718
		c-2.349-2.424-4.005-5.168-4.97-8.23s-1.448-7.369-1.448-12.92V26.839h14.911v41.344c0,4.115,0.185,7.01,0.555,8.685
		c0.37,1.675,1.005,3.023,1.906,4.043c1.415,1.659,3.152,2.84,5.211,3.541c2.058,0.702,4.905,1.053,8.541,1.053h17.564v11.676
		H441.985z"/>
	<path fill="#E76E0A" d="M446.569,26.839h16.792l17.516,26.845l17.757-26.845h17.324L488.55,66.125v31.056H473.64V66.125
		L446.569,26.839z"/>
	<path fill="#E76E0A" d="M558.277,97.181H519.24V26.839h36.432c4.6,0,8.339,0.256,11.219,0.766c2.878,0.511,5.203,1.324,6.973,2.44
		c2.605,1.627,4.592,3.732,5.959,6.316s2.051,5.52,2.051,8.805c0,3.924-0.854,7.25-2.558,9.977
		c-1.706,2.728-4.375,5.017-8.011,6.867c3.668,1.531,6.377,3.597,8.131,6.197c1.754,2.601,2.631,5.862,2.631,9.786
		c0,6.572-1.931,11.413-5.791,14.523S566.415,97.181,558.277,97.181z M534.15,39.472v16.27h21.811c3.377,0,5.854-0.662,7.431-1.986
		c1.576-1.323,2.364-3.374,2.364-6.149c0-2.807-0.788-4.864-2.364-6.173c-1.576-1.308-4.054-1.962-7.431-1.962H534.15z
		 M556.202,84.74c3.409,0,5.887-0.662,7.431-1.986c1.545-1.323,2.316-3.405,2.316-6.245c0-2.871-0.78-4.977-2.34-6.316
		c-1.561-1.34-4.029-2.01-7.407-2.01H534.15V84.74H556.202z"/>
	<path fill="#E76E0A" d="M623.061,39.089c-5.398,0-9.471,1.34-12.218,4.02c-2.748,2.68-4.266,6.779-4.555,12.298l41.256,0.048v12.25
		h-41.353c0.032,6.125,1.341,10.527,3.929,13.207c2.586,2.68,6.899,4.02,12.94,4.02h24.483v12.25h-25.207
		c-5.562,0-9.935-0.47-13.117-1.412c-3.184-0.94-6.172-2.528-8.97-4.761c-3.634-2.871-6.358-6.611-8.175-11.221
		c-1.816-4.609-2.725-10.121-2.725-16.533c0-12.441,2.717-21.621,8.15-27.539c5.433-5.917,13.856-8.876,25.27-8.876h24.773v12.25
		H623.061z"/>
	<path fill="#E76E0A" d="M680.937,26.839h15.827l30.255,70.342h-16.6l-6.514-16.748h-30.834l-6.321,16.748h-15.827L680.937,26.839z
		 M688.271,40.812l-10.374,27.084h21.135L688.271,40.812z"/>
	<path fill="#E76E0A" d="M731.989,26.839h18.866l29.049,50.531l-0.723-50.531h15.248v70.342h-17.324L746.61,43.97l0.675,53.211
		h-15.296V26.839z"/>
</g>
<g>
	<path fill="#E76E0A" d="M228.147,108.84h23.59c3.984,0,7.16,0.204,9.527,0.61c2.367,0.407,4.254,1.052,5.66,1.935
		c2.344,1.487,4.119,3.434,5.326,5.839s1.811,5.177,1.811,8.315c0,3.068-0.492,5.7-1.477,7.896c-0.984,2.197-2.484,4.016-4.5,5.457
		c-1.688,1.185-3.627,2.028-5.818,2.527c-2.192,0.5-5.549,0.75-10.072,0.75H239.01v17.92h-10.863V108.84z M251.596,117.975H239.01
		v15.131h13.254c3.281,0,5.718-0.622,7.312-1.865c1.594-1.243,2.391-3.143,2.391-5.7c0-2.742-0.779-4.689-2.338-5.839
		C258.07,118.55,255.393,117.975,251.596,117.975z"/>
	<path fill="#E76E0A" d="M292.448,108.84v20.779h19.934V108.84h10.863v51.25h-10.863v-21.406h-19.934v21.406h-10.863v-51.25H292.448
		z"/>
	<path fill="#E76E0A" d="M330.593,133.942c0-8.809,2.125-15.363,6.376-19.663c4.25-4.3,10.721-6.45,19.411-6.45
		c8.759,0,15.242,2.173,19.446,6.52s6.306,11.052,6.306,20.116s-2.102,15.782-6.306,20.151c-4.204,4.37-10.687,6.554-19.446,6.554
		c-8.854,0-15.365-2.196-19.534-6.589C332.677,150.188,330.593,143.309,330.593,133.942z M356.38,116.615
		c-4.658,0-8.14,1.441-10.446,4.323c-2.306,2.882-3.458,7.24-3.458,13.074c0,6.322,1.117,10.953,3.353,13.894
		s5.752,4.41,10.551,4.41c4.729,0,8.234-1.458,10.516-4.375c2.282-2.917,3.423-7.409,3.423-13.475
		c0-6.089-1.141-10.587-3.423-13.492S361.108,116.615,356.38,116.615z"/>
	<path fill="#E76E0A" d="M400.87,117.835h-16.699v-8.925h44.719v8.925h-16.77v42.254h-11.25V117.835z"/>
	<path fill="#E76E0A" d="M430.823,133.942c0-8.809,2.125-15.363,6.376-19.663c4.25-4.3,10.721-6.45,19.411-6.45
		c8.759,0,15.242,2.173,19.446,6.52s6.307,11.052,6.307,20.116s-2.103,15.782-6.307,20.151c-4.204,4.37-10.687,6.554-19.446,6.554
		c-8.854,0-15.365-2.196-19.534-6.589C432.907,150.188,430.823,143.309,430.823,133.942z M456.61,116.615
		c-4.658,0-8.14,1.441-10.446,4.323c-2.306,2.882-3.458,7.24-3.458,13.074c0,6.322,1.117,10.953,3.353,13.894
		s5.752,4.41,10.551,4.41c4.729,0,8.234-1.458,10.516-4.375c2.282-2.917,3.423-7.409,3.423-13.475
		c0-6.089-1.141-10.587-3.423-13.492S461.339,116.615,456.61,116.615z"/>
	<path fill="#E76E0A" d="M508.589,138.753v-9.064h25.699v30.401H510.91c-4.312,0-7.623-0.349-9.932-1.046s-4.471-1.848-6.486-3.452
		c-2.648-2.092-4.635-4.816-5.959-8.175c-1.324-3.358-1.986-7.374-1.986-12.045c0-9.041,1.986-15.724,5.959-20.046
		c3.973-4.323,10.107-6.485,18.404-6.485h23.379v8.821H510.91c-4.266,0-7.377,1.372-9.334,4.114
		c-1.957,2.743-2.936,7.112-2.936,13.108c0,5.602,0.973,9.657,2.918,12.167s5.062,3.765,9.352,3.765h12.234v-12.062H508.589z"/>
	<path fill="#E76E0A" d="M543.253,108.84h26.754c6.234,0,10.805,1.244,13.711,3.73c2.906,2.487,4.359,6.38,4.359,11.679
		c0,3.928-0.896,7.136-2.689,9.623c-1.793,2.487-4.377,4.091-7.752,4.811l12.902,21.406h-12.234l-11.391-20.151h-12.797v20.151
		h-10.863V108.84z M567.441,117.975h-13.324v12.899h13.324c3.609,0,6.117-0.488,7.523-1.464c1.406-0.977,2.109-2.65,2.109-5.021
		c0-2.347-0.686-4.003-2.057-4.968C573.646,118.458,571.121,117.975,567.441,117.975z"/>
	<path fill="#E76E0A" d="M612.054,108.84h11.531l22.043,51.25h-12.094l-4.746-12.202h-22.465l-4.605,12.202h-11.531L612.054,108.84z
		 M617.398,119.021l-7.559,19.733h15.398L617.398,119.021z"/>
	<path fill="#E76E0A" d="M649.25,108.84h23.59c3.984,0,7.16,0.204,9.527,0.61c2.367,0.407,4.254,1.052,5.66,1.935
		c2.344,1.487,4.119,3.434,5.326,5.839s1.811,5.177,1.811,8.315c0,3.068-0.492,5.7-1.477,7.896c-0.984,2.197-2.484,4.016-4.5,5.457
		c-1.688,1.185-3.627,2.028-5.818,2.527c-2.191,0.5-5.549,0.75-10.072,0.75h-13.184v17.92H649.25V108.84z M672.699,117.975h-12.586
		v15.131h13.254c3.281,0,5.719-0.622,7.312-1.865c1.594-1.243,2.391-3.143,2.391-5.7c0-2.742-0.779-4.689-2.338-5.839
		C679.173,118.55,676.496,117.975,672.699,117.975z"/>
	<path fill="#E76E0A" d="M713.55,108.84v20.779h19.934V108.84h10.863v51.25h-10.863v-21.406H713.55v21.406h-10.863v-51.25H713.55z"
		/>
	<path fill="#E76E0A" d="M746.739,108.84h12.234l12.762,19.559l12.938-19.559h12.621l-19.969,28.623v22.626h-10.863v-22.626
		L746.739,108.84z"/>
</g>
<g>
	<path fill="#E76E0A" d="M40.005,43.104v-0.994c-0.103-0.12-0.224-0.12-0.344,0v0.994C39.781,43.171,39.903,43.171,40.005,43.104z"
		/>
	<path fill="#E76E0A" d="M124.61,161.878c13.195-0.016,24.455-4.626,33.793-13.847c9.323-9.235,14.003-20.357,14.003-33.417
		c0-13.04-4.68-24.162-14.003-33.398c-9.339-9.238-20.599-13.847-33.793-13.847c-13.195,0-24.471,4.609-33.794,13.847
		c-9.34,9.237-14,20.358-14,33.398c0,13.06,4.66,24.181,14,33.417C100.139,157.251,111.415,161.862,124.61,161.878z M92.032,82.415
		c8.997-8.893,19.863-13.349,32.578-13.349c12.733,0,23.581,4.456,32.577,13.349c8.996,8.894,13.486,19.621,13.486,32.2
		s-4.491,23.306-13.486,32.2c-8.996,8.896-19.844,13.351-32.577,13.351c-12.715,0-23.581-4.455-32.578-13.351
		c-8.997-8.894-13.485-19.621-13.485-32.2S83.036,91.309,92.032,82.415z"/>
	<path fill="#E76E0A" d="M86.137,46.345c-0.814-0.002-1.541,0.295-2.119,0.877c-0.562,0.578-0.862,1.286-0.86,2.102
		c-0.002,0.815,0.293,1.54,0.86,2.103c0.578,0.582,1.304,0.879,2.119,0.877c0.002,0,0.006,0,0.009,0
		c0.812,0,1.519-0.299,2.095-0.877c0.578-0.558,0.875-1.28,0.877-2.09c0-0.005,0-0.008,0-0.013c0.002-0.815-0.297-1.524-0.877-2.102
		C87.663,46.641,86.953,46.342,86.137,46.345z M88.745,49.335c-0.004,0.723-0.255,1.329-0.766,1.826
		c-0.522,0.519-1.115,0.768-1.842,0.77c-0.725-0.001-1.339-0.252-1.855-0.767c-0.498-0.499-0.75-1.113-0.751-1.84
		c0.001-0.727,0.252-1.322,0.753-1.841c0.515-0.514,1.128-0.765,1.854-0.766c0.727,0.002,1.32,0.251,1.839,0.768
		c0.518,0.52,0.767,1.112,0.769,1.839C88.745,49.327,88.745,49.331,88.745,49.335z"/>
	<path fill="#E76E0A" d="M99.692,36.41L99.692,36.41c0.001,0,0.001,0.001,0.003,0.001h0.001c0.006,0.001,0.011,0.002,0.016,0.003
		c7.81,1.46,15.134,2.189,21.976,2.189c6.823,0,13.165-0.725,19.022-2.175c0.089-0.021,0.15-0.104,0.143-0.195
		c-0.007-0.091-0.079-0.163-0.168-0.171c-6.886-0.628-13.753-0.94-20.603-0.94c-6.798,0-13.581,0.308-20.346,0.923
		c-0.021,0-0.04,0.005-0.058,0.011c-0.002,0.001-0.003,0.002-0.005,0.003c-0.071,0.029-0.119,0.101-0.116,0.18
		C99.562,36.318,99.615,36.388,99.692,36.41z M120.083,35.494c6.46,0,12.936,0.28,19.427,0.839
		c-5.516,1.265-11.457,1.899-17.822,1.899c-6.417,0-13.268-0.645-20.55-1.936C107.438,35.762,113.753,35.494,120.083,35.494z"/>
	<path fill="#E76E0A" d="M124.626,152.623c0.002,0,0.005,0,0.007,0c10.598,0,19.666-3.726,27.166-11.125
		c7.488-7.415,11.247-16.386,11.247-26.884c0-10.479-3.758-19.444-11.238-26.858c-0.003-0.002-0.005-0.004-0.009-0.007
		c-7.502-7.4-16.572-11.126-27.173-11.124c-10.617-0.002-19.688,3.724-27.171,11.124c-7.505,7.416-11.266,16.385-11.263,26.865
		c-0.003,10.498,3.758,19.469,11.263,26.884C104.938,148.899,114.009,152.623,124.626,152.623z M97.715,88.015
		c7.425-7.337,16.38-11.015,26.911-11.017c10.513,0.002,19.471,3.68,26.913,11.017c7.42,7.356,11.132,16.208,11.134,26.6
		c-0.001,10.409-3.713,19.264-11.134,26.62c-7.442,7.336-16.4,11.014-26.913,11.016c-10.53-0.002-19.486-3.68-26.911-11.018
		c-7.439-7.354-11.15-16.209-11.152-26.618C86.565,104.223,90.276,95.371,97.715,88.015z"/>
	<path fill="#E76E0A" d="M9.344,62.986L9.34,63c-0.294,1.042-0.444,1.959-0.444,2.756c-0.001,1.195,0.342,2.132,1.048,2.756
		c0.704,0.624,1.738,0.92,3.074,0.921c0.788-0.001,1.684-0.104,2.69-0.306c4.499-0.89,8.62-1.437,12.378-1.608
		c3.814-0.191,7.79-1.75,11.94-4.66c1.823-1.269,2.765-2.809,2.764-4.581c0-1.19-0.42-2.47-1.237-3.84
		c-1.72-2.894-3.904-4.381-6.51-4.378c-0.64,0-1.304,0.089-1.991,0.265c-0.002,0.001-0.004,0.002-0.005,0.002
		c-3.365,0.889-7.539,1.675-12.483,2.36C15.347,53.395,11.58,56.862,9.344,62.986z M20.614,53.056
		c4.956-0.686,9.142-1.476,12.527-2.369c0.002,0,0.003,0,0.003,0c0.661-0.17,1.293-0.254,1.898-0.254
		c2.456,0.003,4.499,1.368,6.19,4.196c0.795,1.331,1.186,2.549,1.184,3.65c-0.002,1.634-0.844,3.044-2.604,4.275
		c-4.111,2.883-8.021,4.409-11.745,4.595c-3.781,0.171-7.92,0.722-12.434,1.614c-0.989,0.199-1.861,0.298-2.617,0.297
		c-2.57-0.028-3.725-1.062-3.75-3.304c0-0.748,0.141-1.632,0.427-2.646C11.914,57.069,15.548,53.752,20.614,53.056z"/>
	<path fill="#E76E0A" d="M59.644,72.422c0.003,0,0.006,0,0.009,0c1.222,0,2.271-0.436,3.122-1.289
		c0.871-0.868,1.307-1.921,1.306-3.147c0-1.209-0.435-2.262-1.306-3.131c-0.851-0.854-1.902-1.308-3.13-1.306
		c-1.211-0.002-2.278,0.451-3.131,1.306c-0.871,0.869-1.307,1.921-1.306,3.131c-0.001,1.226,0.435,2.279,1.306,3.147
		C57.367,71.989,58.434,72.424,59.644,72.422z M56.777,65.119c0.792-0.792,1.748-1.195,2.867-1.197
		c1.137,0.001,2.073,0.404,2.866,1.197c0.808,0.811,1.195,1.745,1.198,2.867c0,0.004,0,0.008,0,0.011
		c-0.004,1.133-0.391,2.065-1.198,2.873c-0.792,0.791-1.727,1.178-2.866,1.18c-1.122-0.001-2.076-0.39-2.867-1.18
		c-0.808-0.81-1.195-1.744-1.197-2.884C55.582,66.864,55.969,65.93,56.777,65.119z"/>
	<path fill="#E76E0A" d="M25.333,63.753c0.931,0.633,2.343,0.93,4.241,0.933c0.325-0.001,0.663-0.011,1.015-0.027
		c2.404-0.122,4.389-0.658,5.916-1.605c1.843-1.152,2.808-2.887,2.863-5.104c0,0,0,0,0-0.001c0.029-0.237,0.045-0.469,0.043-0.698
		c0.003-1.539-0.683-2.9-2.026-4.042c-0.991-0.84-2.153-1.263-3.457-1.262c-1.859,0.002-4,0.846-6.435,2.501
		c-1.798,1.263-2.938,2.424-3.393,3.583c-0.228,0.562-0.335,1.121-0.335,1.67c0,0.169,0.01,0.338,0.031,0.506
		c-0.022,0.194-0.034,0.384-0.034,0.568C23.757,62.037,24.291,63.056,25.333,63.753z M36.307,62.738
		c-1.454,0.903-3.377,1.43-5.737,1.549c-0.347,0.017-0.678,0.025-0.996,0.025c-1.86,0.002-3.205-0.3-4.032-0.867
		c-0.743-0.504-1.173-1.147-1.332-1.956c0.605,1.118,1.935,1.684,3.914,1.729c0.19,0.004,0.377,0.006,0.565,0.006h0
		c0,0,0.002,0,0.003,0c2.181,0,4.205-0.28,6.072-0.854c1.834-0.559,3.135-1.373,3.872-2.449
		C38.224,61.077,37.456,62.013,36.307,62.738z M24.445,58.167c0.404-1.039,1.491-2.173,3.26-3.414
		c2.397-1.631,4.479-2.436,6.223-2.433c1.224,0,2.286,0.387,3.215,1.172c1.28,1.093,1.894,2.332,1.896,3.758
		c0,0.213-0.013,0.43-0.042,0.652c0,0,0,0.001,0,0.002c-0.034,0.187-0.068,0.383-0.115,0.555c-0.359,1.614-1.735,2.79-4.228,3.555
		c-1.828,0.562-3.815,0.836-5.965,0.836c-0.185,0-0.37,0-0.556-0.005c-2.066-0.053-3.251-0.652-3.706-1.735
		c-0.129-0.292-0.211-0.599-0.261-0.927c0,0,0-0.001,0-0.002c-0.021-0.161-0.031-0.321-0.031-0.481
		C24.137,59.201,24.234,58.69,24.445,58.167z"/>
	<path fill="#E76E0A" d="M26.57,94.101c0.003,0,0.006,0,0.009,0c1.391,0,2.585-0.64,3.547-1.871
		c0.971-1.252,1.447-2.756,1.445-4.485c0.001-1.747-0.475-3.252-1.445-4.484c-0.964-1.251-2.161-1.892-3.556-1.889
		c-1.395-0.002-2.609,0.638-3.574,1.889c-0.971,1.232-1.445,2.737-1.444,4.484c-0.001,1.729,0.475,3.233,1.444,4.484
		C23.962,93.464,25.175,94.102,26.57,94.101z M23.289,83.49c0.92-1.183,2.002-1.743,3.281-1.745
		c1.278,0.002,2.343,0.562,3.263,1.744c0.915,1.166,1.367,2.574,1.367,4.256c0,1.663-0.452,3.073-1.367,4.255
		c-0.918,1.165-1.984,1.726-3.263,1.729c-1.279-0.004-2.362-0.564-3.281-1.729c-0.915-1.182-1.365-2.592-1.365-4.255
		C21.924,86.063,22.374,84.654,23.289,83.49z"/>
	<path fill="#E76E0A" d="M124.61,174.366c0.004,0,0.011,0,0.015,0c16.653,0.002,30.916-5.855,42.712-17.502
		c11.788-11.661,17.697-25.758,17.693-42.25c0.004-16.487-5.905-30.588-17.693-42.25c-0.003-0.003-0.007-0.006-0.011-0.01
		c-11.796-11.642-26.062-17.495-42.716-17.492c-16.676-0.003-30.947,5.853-42.727,17.501c-11.804,11.66-17.715,25.762-17.71,42.25
		c-0.004,16.491,5.906,30.589,17.71,42.25C93.663,168.514,107.934,174.37,124.61,174.366z M82.407,72.895
		c11.661-11.521,25.702-17.284,42.203-17.287c16.482,0.003,30.524,5.766,42.202,17.288c0.005,0.003,0.007,0.005,0.011,0.008
		c11.65,11.541,17.459,25.406,17.463,41.711c-0.004,16.312-5.816,30.178-17.474,41.721c-11.677,11.522-25.719,17.283-42.202,17.287
		c-16.501-0.004-30.542-5.765-42.203-17.287c-11.674-11.543-17.486-25.408-17.489-41.721C64.921,98.305,70.732,84.437,82.407,72.895
		z"/>
	<path fill="#E76E0A" d="M124.628,156.835c0.002,0,0.008,0,0.013,0c11.753,0,21.835-4.143,30.167-12.359
		c8.328-8.235,12.506-18.222,12.5-29.862c0.005-11.634-4.171-21.618-12.49-29.833c-0.004-0.003-0.005-0.006-0.007-0.01
		c-8.338-8.238-18.427-12.363-30.183-12.359c-11.775-0.003-21.863,4.122-30.184,12.36c-8.342,8.217-12.52,18.202-12.518,29.842
		c-0.002,11.64,4.176,21.627,12.518,29.862C102.765,152.696,112.851,156.839,124.628,156.835z M94.966,85.302
		c8.2-8.11,18.06-12.142,29.662-12.146c11.583,0.003,21.441,4.036,29.658,12.146c8.196,8.098,12.276,17.851,12.279,29.312
		c-0.003,11.463-4.083,21.216-12.279,29.331c-8.217,8.094-18.076,12.142-29.658,12.147c-11.6-0.005-21.461-4.053-29.661-12.147
		c-8.211-8.115-12.292-17.868-12.297-29.331C82.675,103.153,86.756,93.4,94.966,85.302z"/>
	<path fill="#E76E0A" d="M202.241,94.136c0-0.034,0-0.068,0-0.086c-0.139-1.354-0.532-2.484-1.166-3.392
		c-0.361-0.531-0.806-0.977-1.32-1.354c0.413-6.255,0.257-12.373-0.461-18.371c-0.293-2.519-0.688-5.021-1.183-7.488
		c-1.922-9.7-8.363-16.126-19.349-19.228c-11.893-3.359-19.313-9.819-22.261-19.381c-2.553-8.278-6.752-12.956-12.611-14.002
		c-14.397-2.708-29.374-2.604-44.934,0.292c-6.82,1.251-12.048,5.998-15.664,14.24c-2.158,4.936-4.644,8.894-7.454,11.91
		l-0.633-2.193l0.017,0.017c-0.035-0.136-0.085-0.273-0.12-0.411c-0.122-0.309-0.274-0.583-0.446-0.806
		c-0.446-0.599-1.081-0.942-1.902-1.028c-10.848-1.097-21.062,0.788-30.659,5.689H42.08c-0.669,0.343-1.098,0.891-1.32,1.628
		c-0.069,0.24-0.12,0.514-0.12,0.823c-0.532-0.343-1.217-0.343-2.074-0.017l-2.981,1.096c-0.018,0.017-0.018,0.017-0.035,0.017
		c-0.977,0.378-1.507,1.08-1.559,2.109c-0.788,0.411-1.611,0.822-2.468,1.216c-1.646,0.771-3.428,1.525-5.363,2.262
		c-2.296,0.857-4.782,1.68-7.472,2.468C11.9,52.083,7.994,58.749,7.017,70.162C7,70.179,7,70.213,7,70.248
		c0.685,29.543,2.142,57.837,4.369,84.878v-0.016c0.172,2.672,1.114,4.816,2.812,6.443c2.278,2.262,6.013,3.496,11.188,3.719
		c0.018,0,0.018,0,0.018,0c7.25,0.171,12.834-1.25,16.777-4.268l30.572-2.313c1.132,1.268,2.314,2.519,3.548,3.735
		c13.35,13.213,29.475,19.812,48.342,19.812c17.842,0,33.211-5.896,46.133-17.703h19.381c4.182-0.018,7.316-1.15,9.375-3.43
		c2.074-2.211,3.083-5.534,3.015-9.955L202.241,94.136z M27.564,48.242c3.537-0.75,6.78-1.103,9.682-1.025
		c0.771,0.839,1.457,1.045,2.057,0.634c0.583-0.395,1.285-0.565,2.09-0.464c0.977,0.104,1.56,0.36,1.749,0.738
		c0.24,0.479,0.463,0.531,0.685,0.206c0.308-0.925,0.188-1.458-0.359-1.611c-1.509-0.188-2.57-0.291-3.188-0.326
		c-0.599-0.033-0.959,0.121-1.028,0.48c-0.103,0.395-0.531,0.583-1.25,0.514c0-1.851,0.634-2.845,1.868-2.981
		c-0.188-0.515-0.737-0.634-1.679-0.343c-0.926,0.274-1.44,0.652-1.509,1.166c-0.068,0.532-0.324,0.942-0.753,1.233
		c-0.549,0.36-0.823,0.138-0.79-0.685c0.018-0.925,0.652-1.576,1.886-1.936c1.353-0.395,2.279-0.532,2.743-0.411
		c0.496,0.12,0.839,0.445,1.044,0.959c0.129,0.012,0.264,0.017,0.398,0.023c-0.006,0.099,0.069,0.187,0.169,0.197
		c0.388,0.033,0.755,0.084,1.122,0.167c0.003,0,0.006,0,0.009,0.001c0,0,0,0,0,0c0.278,0.049,0.579,0.132,0.868,0.217
		c0.001,0,0.001,0.001,0.001,0.001c0.386,0.117,0.772,0.268,1.123,0.435c1.409,0.67,2.598,1.708,3.558,3.14
		c0.035,0.052,0.093,0.082,0.156,0.082h0.969c0.2,0.343,0.389,0.687,0.579,1.049v0.001c2.11,4.031,3.374,8.959,3.767,14.749
		c0.032,0.642,0.051,1.29,0.081,1.939c-0.26,0.162-0.546,0.314-0.88,0.466c-2.229,0.943-6.185,1.43-11.811,1.429
		c-0.377,0-0.76-0.002-1.151-0.006c-0.38-0.004-0.77-0.006-1.168-0.006c-7.144,0-17.312,0.581-30.534,1.753
		c0.992-10.77,4.639-17.021,10.932-18.879c2.694-0.79,5.218-1.63,7.536-2.506C26.883,48.508,27.223,48.375,27.564,48.242z
		 M35.02,44.437c0.009-0.695,0.29-1.121,0.924-1.384l2.976-1.095c0.265-0.096,0.495-0.142,0.688-0.142
		c0.361,0.006,0.59,0.137,0.783,0.469l0.926,1.646c0.042,0.074,0.127,0.11,0.209,0.088c0.082-0.021,0.14-0.095,0.14-0.179v-2.503
		c0-0.296,0.035-0.553,0.086-0.79c0.203-0.076,0.411-0.152,0.62-0.229l0.86,3.83c-0.239,0.08-0.478,0.161-0.711,0.255
		c-0.367-0.08-0.732-0.134-1.112-0.167c-0.045-0.004-0.085,0.014-0.12,0.038c-0.156-0.214-0.294-0.435-0.392-0.658
		c-0.103-0.291-0.292-0.547-0.532-0.806c-0.017,0.172-0.068,0.292-0.171,0.378c-0.069,0.068-0.171,0.102-0.308,0.12
		c-0.361,0.017-0.548-0.103-0.6-0.377c-0.052-0.308-0.171-0.36-0.377-0.154c-0.12,0.103-0.241,0.188-0.395,0.222
		c-0.223,0.07-0.462,0.155-0.685,0.224c-0.274,0.103-0.566,0.222-0.857,0.377c-0.274,0.121-0.565,0.205-0.892,0.24
		c-0.324,0.034-0.599,0.17-0.788,0.429c-0.102,0.12-0.172,0.273-0.188,0.445c-0.035,0.308-0.138,0.548-0.309,0.753
		c-0.205,0.24-0.514,0.343-0.89,0.292c-0.309-0.052-0.515,0.051-0.635,0.256c-0.171,0.344-0.479,0.445-0.908,0.344
		c-0.031-0.056-0.081-0.083-0.13-0.112c0.941-0.457,1.854-0.915,2.706-1.387c0.063-0.037,0.101-0.108,0.094-0.182
		C35.024,44.595,35.02,44.515,35.02,44.437z M198.933,82.489c0,2.27-0.083,4.56-0.234,6.868c-0.713-0.596-1.482-1.2-2.309-1.794
		c-0.136-4.673-0.342-8.503-0.631-11.473c-0.034-0.346-0.05-0.673-0.05-0.981c0.019-2.242,0.853-3.441,2.581-3.838
		C198.717,74.961,198.933,78.7,198.933,82.489z M66.598,79.208c1.226-2.112,2.574-4.158,4.023-6.154
		c1.959-2.658,4.142-5.251,6.53-7.724c13.138-13.625,28.921-20.411,47.474-20.416c17.326,0.003,32.229,5.922,44.833,17.773
		c0.886,0.852,1.772,1.721,2.641,2.64c1.011,1.044,1.982,2.102,2.901,3.174c3.362,3.872,6.207,7.979,8.542,12.291
		c0.249,0.462,0.473,0.923,0.709,1.385c-0.456-0.801-0.925-1.597-1.423-2.379c-2.791-4.461-6.202-8.682-10.196-12.644
		c-0.341-0.342-0.686-0.669-1.047-0.996c-0.002-0.001-0.002-0.002-0.003-0.003c-13.033-12.434-28.706-18.665-46.955-18.661
		c-18.732-0.004-34.749,6.572-48.004,19.66c-2.739,2.721-5.184,5.546-7.372,8.491c-1.674,2.265-3.171,4.604-4.51,7.008
		C65.326,81.491,65.942,80.341,66.598,79.208z M150.516,23.244H94.655c-1.008,0.051-1.923,0.168-2.786,0.319
		c-0.763-0.28-1.07-0.637-1.074-1.138c0-0.109,0.016-0.228,0.047-0.355c0.799-2.498,1.602-4.32,2.389-5.477
		c0.994-1.44,2.637-2.394,4.988-2.834c8.064-1.524,16.211-2.284,24.444-2.284c6.197,0,12.44,0.43,18.733,1.291
		c3.644,0.361,6.056,1.622,7.318,3.798c1.318,2.226,2.124,3.733,2.44,4.471c0.084,0.199,0.127,0.398,0.127,0.601
		C151.281,22.122,151.035,22.653,150.516,23.244z M91.871,23.939c0.001,0,0.003,0,0.005,0c0.867-0.154,1.787-0.272,2.789-0.324
		l55.934,0.001c2.111,0.191,3.589,1.278,4.534,3.353l13.944,34.374c-12.541-11.428-27.359-17.175-44.451-17.172
		c-18.736-0.004-34.758,6.886-48.011,20.644c-2.083,2.158-4.002,4.41-5.766,6.715c3.813-14.812,6.631-24.943,8.473-30.354
		c2.021-5.959,3.733-10.185,5.127-12.667c1.088-1.958,2.94-3.332,5.614-4.129C90.637,24.193,91.243,24.058,91.871,23.939z
		 M184.284,80.61c-0.03-0.057-0.057-0.114-0.088-0.171c-2.362-4.361-5.239-8.514-8.631-12.423c-0.082-0.096-0.169-0.189-0.252-0.285
		c-2.54-8.322-5.962-17.335-10.308-27.032c4.844,3.376,10.653,6.302,17.448,8.782c6.828,2.461,10.797,14.623,11.601,36.478
		C191.292,84.169,188.037,82.381,184.284,80.61z M187.2,86.944c-0.001-0.004-0.005-0.007-0.007-0.011
		c-0.434-1.124-0.901-2.222-1.4-3.317c5.282,3.067,9.422,6.197,12.402,9.406c0.943,0.808,1.578,0.977,1.885,0.515
		c0.218-0.345,0.329-0.88,0.331-1.598c0.111,0.439,0.188,0.86,0.188,1.24c0,0.697-0.182,1.293-0.55,1.81
		c-0.277,0.393-0.599,0.566-1.029,0.57c-0.577,0.003-1.372-0.357-2.336-1.122c-2.643-2.261-5.788-4.708-9.405-7.281
		C187.25,87.084,187.227,87.015,187.2,86.944z M195.335,75.108c0,0.322,0.018,0.661,0.054,1.018
		c0.282,2.896,0.485,6.629,0.621,11.169c-0.507-0.367-1.026-0.721-1.573-1.091c-0.81-22.041-4.681-34.41-11.857-37.072
		c-7.031-2.567-12.997-5.61-17.915-9.128c-0.068-0.049-0.161-0.046-0.229,0.007c-0.064,0.054-0.085,0.143-0.05,0.221
		c4.335,9.616,7.76,18.556,10.325,26.821c-0.673-0.754-1.36-1.503-2.072-2.24c-0.879-0.929-1.773-1.807-2.667-2.665
		c-0.085-0.08-0.174-0.154-0.259-0.233l-14.238-35.093c-0.927-2.067-2.455-3.251-4.518-3.528c0.444-0.561,0.695-1.109,0.697-1.656
		c0-0.254-0.054-0.504-0.155-0.748c-0.334-0.772-1.142-2.281-2.461-4.513c-1.342-2.311-3.9-3.619-7.597-3.979
		c-6.301-0.862-12.562-1.293-18.776-1.293c-8.254,0-16.425,0.762-24.514,2.29c-2.411,0.449-4.163,1.45-5.225,2.99
		c-0.824,1.209-1.631,3.056-2.44,5.584c-0.042,0.165-0.062,0.313-0.062,0.458c-0.003,0.542,0.3,0.968,0.824,1.266
		c-0.441,0.094-0.876,0.198-1.292,0.333c-2.736,0.812-4.689,2.248-5.829,4.302c-1.417,2.522-3.131,6.759-5.155,12.729
		c-1.885,5.537-4.774,15.95-8.701,31.234c-0.081,0.109-0.167,0.216-0.248,0.325c-1.383,1.905-2.667,3.86-3.853,5.873
		c-0.521-0.881-0.811-2.069-0.811-3.623c0-0.894,0.092-1.901,0.276-3.018c0.408-0.623,0.717-1.305,0.906-2.007
		c0-0.001,0.001-0.001,0.002-0.003c3.679-12.804,7.837-23.67,12.472-32.634c1.137-1.62,2.167-3.479,3.079-5.541
		c0.042-0.094-0.001-0.204-0.095-0.246c-0.094-0.041-0.204,0.002-0.246,0.096v-0.001c-0.904,2.047-1.927,3.888-3.049,5.486
		c-2.74,3.879-6.167,6.489-10.275,7.848c-5.828,1.92-11.963,3.434-18.402,4.562c-0.179-0.34-0.359-0.671-0.552-1
		c-0.103-0.548-0.156-1.07-0.154-1.56c-0.001-0.25,0.02-0.488,0.047-0.721c12.487-1.9,20.827-4.046,25.022-6.46
		c0.4-0.227,0.766-0.471,1.097-0.713c0.435-0.313,0.805-0.63,1.107-0.969c2.895-3.084,5.441-7.164,7.658-12.199
		c3.468-7.901,8.417-12.414,14.911-13.636c7.979-1.49,15.811-2.234,23.483-2.234c7.15,0,14.164,0.647,21.037,1.942
		c5.462,1.031,9.389,5.42,11.818,13.273c3.033,9.921,10.73,16.621,22.97,20.089c10.58,2.993,16.739,9.128,18.617,18.434
		c0.468,2.394,0.854,4.804,1.158,7.246C196.327,71.302,195.318,72.761,195.335,75.108z M45.507,154.551L41.218,98.32
		c-0.173-2.315-0.261-4.43-0.261-6.336c-0.009-7.494,1.368-11.78,3.922-12.895c3.113-1.41,5.963-4.164,8.58-8.227
		c0.152-0.232,0.302-0.486,0.453-0.734c0.025,0.634,0.049,1.308,0.062,2.06c0.007,0.587,0.012,1.215,0.012,1.879
		c0.001,2.071-0.041,4.499-0.131,7.262c-0.027,0.832-0.037,1.847-0.037,3.048c0,9.688,0.797,31.466,2.368,65.359
		c0.001,0.061,0.001,0.123,0.001,0.188c-0.005,1.552-0.717,2.678-2.205,3.471c-1.492,0.786-3.771,1.197-6.825,1.195
		C46.632,154.59,46.077,154.573,45.507,154.551z M66.76,67.792c-0.061-1.882-0.745-3.502-2.084-4.823
		c-1.365-1.385-3.051-2.094-5.016-2.093c-1.946-0.001-3.647,0.708-5.015,2.095c-0.301,0.29-0.558,0.606-0.791,0.934
		c-0.427-5.501-1.646-10.23-3.653-14.152c6.415-1.128,12.531-2.638,18.344-4.553c3.618-1.196,6.719-3.356,9.289-6.459
		C73.763,46.922,70.073,56.598,66.76,67.792z M54.344,72.115c-0.017-0.914-0.047-1.736-0.08-2.473
		c0.256,0.864,0.7,1.652,1.393,2.333c1.089,1.108,2.431,1.664,3.996,1.664c0.003,0,0.005,0,0.009,0
		c1.55,0.002,2.895-0.554,3.987-1.667c1.094-1.091,1.65-2.434,1.649-3.986c0.001-1.553-0.555-2.895-1.649-4.004
		c-1.092-1.096-2.437-1.65-3.987-1.648c-1.569-0.002-2.913,0.553-4.006,1.648c-0.91,0.908-1.416,1.982-1.576,3.19
		c-0.03-0.251-0.062-0.487-0.095-0.699c-0.032-0.658-0.05-1.319-0.083-1.981c0.261-0.447,0.597-0.866,1.003-1.255
		c1.31-1.324,2.898-1.985,4.754-1.987c1.875,0.002,3.445,0.663,4.751,1.984c1.323,1.307,1.968,2.877,1.986,4.755
		c-0.017,0.599-0.084,1.187-0.218,1.754c-0.181,0.678-0.481,1.345-0.881,1.945c-0.249,0.363-0.549,0.715-0.885,1.051
		c-1.308,1.321-2.877,1.966-4.753,1.968c-1.858-0.002-3.446-0.646-4.751-1.968C54.69,72.534,54.517,72.333,54.344,72.115z
		 M54.381,67.986c0.001-1.466,0.492-2.692,1.539-3.742c1.034-1.03,2.259-1.537,3.743-1.54c1.462,0.002,2.691,0.51,3.723,1.54
		c1.03,1.049,1.538,2.278,1.539,3.742c-0.001,1.464-0.509,2.692-1.539,3.723c-1.033,1.048-2.259,1.554-3.723,1.557
		c-1.484-0.003-2.709-0.509-3.743-1.555C54.873,70.678,54.382,69.451,54.381,67.986z M73.322,34.826l0.872,3.192
		c-0.194,0.013-0.389,0.025-0.576,0.049l-0.001,0c-0.259,0.015-0.496,0.039-0.732,0.057l-0.705-3.497
		c0.02,0.002,0.045,0.003,0.062,0.006c0.291,0.034,0.575,0.084,0.828,0.134C73.166,34.793,73.243,34.809,73.322,34.826z
		 M75.049,38.329l0.11,0.391c-0.197,0.143-0.418,0.28-0.639,0.417l0.081-0.776C74.753,38.35,74.902,38.339,75.049,38.329z
		 M44.844,43.977c0.376-0.129,0.762-0.259,1.149-0.389l-0.05,1.07c-0.387,0.117-0.773,0.233-1.161,0.349L44.844,43.977z
		 M46.371,43.466c0.305-0.098,0.614-0.19,0.919-0.279l-0.075,1.093c-0.3,0.084-0.599,0.173-0.894,0.267L46.371,43.466z
		 M47.67,43.073c0.247-0.077,0.497-0.151,0.748-0.227L48.33,43.97c-0.248,0.068-0.491,0.135-0.735,0.203L47.67,43.073z M48.8,42.734
		c0.318-0.085,0.637-0.171,0.956-0.257l-0.089,1.132c-0.319,0.086-0.637,0.171-0.956,0.258L48.8,42.734z M50.137,42.373
		c0.271-0.08,0.555-0.157,0.841-0.237l-0.064,1.163c-0.293,0.071-0.581,0.143-0.866,0.214L50.137,42.373z M51.355,42.035
		c0.3-0.072,0.595-0.145,0.892-0.217l-0.063,1.156c-0.299,0.072-0.597,0.148-0.892,0.229L51.355,42.035z M52.625,41.727
		c0.32-0.084,0.648-0.16,0.985-0.234l-0.104,1.168c-0.309,0.073-0.627,0.147-0.946,0.221L52.625,41.727z M53.991,41.404
		c0.36-0.09,0.731-0.175,1.108-0.255l-0.116,1.185c-0.357,0.077-0.725,0.157-1.095,0.242L53.991,41.404z M55.479,41.062
		c0.339-0.075,0.683-0.149,1.024-0.225l-0.117,1.188c-0.348,0.075-0.687,0.149-1.024,0.224L55.479,41.062z M56.884,40.758
		c0.418-0.079,0.831-0.158,1.248-0.236l-0.117,1.174c-0.418,0.079-0.834,0.161-1.246,0.25L56.884,40.758z M58.513,40.45
		c0.357-0.074,0.729-0.14,1.106-0.204l-0.129,1.158c-0.365,0.074-0.727,0.143-1.093,0.215L58.513,40.45z M60.001,40.177
		c0.441-0.089,0.896-0.163,1.355-0.241l-0.103,1.142c-0.459,0.082-0.923,0.171-1.38,0.254L60.001,40.177z M61.736,39.872
		c0.356-0.053,0.712-0.111,1.072-0.164l-0.129,1.128c-0.353,0.063-0.698,0.122-1.046,0.176L61.736,39.872z M63.188,39.649
		c0.306-0.049,0.62-0.098,0.936-0.146l-0.141,1.124c-0.313,0.049-0.619,0.098-0.923,0.146L63.188,39.649z M64.506,39.446
		c0.285-0.036,0.575-0.075,0.869-0.119l-0.142,1.111c-0.296,0.039-0.583,0.083-0.868,0.13L64.506,39.446z M65.757,39.276
		c0.393-0.052,0.794-0.104,1.198-0.156l-0.127,1.078c-0.401,0.062-0.805,0.12-1.21,0.182L65.757,39.276z M67.333,39.074
		c0.238-0.026,0.473-0.053,0.706-0.079l-0.101,1.063c-0.247,0.025-0.489,0.056-0.731,0.089L67.333,39.074z M68.417,38.952
		c0.317-0.037,0.629-0.074,0.944-0.11l-0.089,1.045c-0.317,0.037-0.636,0.078-0.956,0.123L68.417,38.952z M69.739,38.802
		c0.24-0.023,0.491-0.046,0.748-0.069l-0.113,1.017c-0.247,0.025-0.486,0.056-0.722,0.089L69.739,38.802z M70.866,38.696
		c0.231-0.03,0.464-0.055,0.698-0.078l-0.125,1.01c-0.23,0.022-0.458,0.047-0.685,0.076L70.866,38.696z M71.943,38.58
		c0.196-0.014,0.39-0.032,0.583-0.052l-0.112,0.996c-0.199,0.014-0.397,0.036-0.595,0.062L71.943,38.58z M72.903,38.496
		c0.173-0.013,0.345-0.027,0.519-0.041l-0.086,0.966c-0.181,0.02-0.362,0.04-0.543,0.061L72.903,38.496z M74.126,39.337
		c-0.139,0.015-0.276,0.029-0.414,0.043l0.085-0.955c0.138-0.015,0.281-0.027,0.427-0.037L74.126,39.337z M71.794,34.596
		l0.719,3.559c-0.25,0.026-0.496,0.054-0.747,0.066c-0.001,0-0.002,0.002-0.004,0.002c-0.001,0-0.002-0.001-0.003-0.001
		l-0.002-0.001c-0.302,0.03-0.609,0.063-0.916,0.103l-0.806-3.681c0.271-0.014,0.535-0.029,0.792-0.043
		c0.108,0.001,0.211,0.001,0.314,0.001c0.144-0.01,0.278-0.014,0.409-0.014C71.635,34.588,71.714,34.592,71.794,34.596z
		 M69.657,34.661l0.812,3.7c-0.315,0.028-0.627,0.056-0.921,0.084c-0.001,0-0.001,0.001-0.001,0.001c-0.001,0-0.002,0-0.003,0
		c-0.388,0.045-0.764,0.09-1.148,0.134l-0.749-3.789c0.006,0,0.012-0.001,0.018-0.001h0.017c0.337-0.034,0.659-0.052,0.985-0.068
		C69.009,34.691,69.333,34.676,69.657,34.661z M67.274,34.819l0.75,3.802c-0.295,0.033-0.589,0.071-0.875,0.097
		c-0.001,0-0.002,0.001-0.003,0.001c-0.001,0-0.001,0-0.002,0c-0.475,0.062-0.945,0.123-1.407,0.183l-0.796-3.878
		c0.404-0.035,0.803-0.083,1.196-0.116C66.525,34.879,66.899,34.849,67.274,34.819z M64.569,35.066l0.798,3.887
		c-0.354,0.053-0.703,0.101-1.051,0.144c-0.001,0-0.001,0.001-0.002,0.001s-0.001,0-0.001,0c-0.388,0.059-0.772,0.119-1.149,0.178
		l-0.893-3.915c0.423-0.059,0.84-0.118,1.248-0.162C63.876,35.155,64.226,35.111,64.569,35.066z M61.897,35.402l0.896,3.932
		c-0.428,0.062-0.846,0.133-1.257,0.192c-0.001,0-0.001,0.001-0.003,0.001c-0.001,0-0.001,0-0.002,0
		c-0.519,0.092-1.04,0.175-1.555,0.277l-0.846-3.967c0.408-0.07,0.809-0.133,1.209-0.192C60.869,35.547,61.381,35.481,61.897,35.402
		z M58.763,35.904l0.848,3.966c-0.444,0.074-0.882,0.149-1.303,0.239h0c-0.49,0.092-0.967,0.184-1.453,0.275l-0.925-3.937
		c0.438-0.091,0.876-0.182,1.297-0.256C57.738,36.09,58.243,35.988,58.763,35.904z M55.562,36.521l0.927,3.939
		c-0.403,0.088-0.816,0.178-1.218,0.267l0,0l-0.001,0c-0.001,0-0.002,0-0.003,0l0,0c-0.452,0.091-0.884,0.196-1.306,0.3
		l-0.833-3.954c0.35-0.084,0.703-0.161,1.06-0.251C54.651,36.718,55.105,36.624,55.562,36.521z M52.73,37.166
		c0.014-0.003,0.023-0.005,0.036-0.008l0.832,3.956c-0.41,0.089-0.805,0.179-1.194,0.284v0c-0.368,0.088-0.724,0.177-1.086,0.265
		l-0.909-3.886c0.362-0.108,0.722-0.205,1.083-0.283l0.014-0.003C51.911,37.37,52.319,37.269,52.73,37.166z M50.047,37.868
		l0.909,3.887c-0.351,0.099-0.705,0.191-1.048,0.295c0,0,0,0-0.001,0c-0.382,0.103-0.764,0.206-1.146,0.309L47.835,38.5
		c0.002,0,0.006-0.001,0.008-0.002c0.406-0.118,0.816-0.237,1.227-0.357C49.401,38.054,49.728,37.958,50.047,37.868z M47.479,38.61
		l0.924,3.851c-0.316,0.097-0.635,0.188-0.958,0.291h0c-0.367,0.103-0.744,0.22-1.114,0.336l-0.846-3.836
		c0.334-0.115,0.662-0.222,0.986-0.326C46.818,38.826,47.149,38.714,47.479,38.61z M45.128,39.367l0.846,3.835
		c-0.46,0.154-0.921,0.307-1.369,0.461c-0.001,0-0.001,0.001-0.001,0.001c-0.343,0.114-0.683,0.233-1.018,0.358l-0.861-3.833
		c0.309-0.107,0.618-0.22,0.907-0.322c0.444-0.154,0.889-0.308,1.313-0.444C45.013,39.399,45.068,39.385,45.128,39.367z
		 M43.254,44.58c-0.024-0.007-0.048-0.011-0.072-0.018c0.025-0.009,0.048-0.018,0.073-0.026L43.254,44.58z M43.632,44.401
		c0.27-0.103,0.55-0.198,0.832-0.293l-0.054,0.889c-0.256-0.112-0.518-0.218-0.788-0.305L43.632,44.401z M46.176,44.977
		L46.176,44.977c0.002,0,0.004,0,0.005-0.001c0.405-0.135,0.831-0.254,1.259-0.374l0,0c0.376-0.103,0.732-0.205,1.104-0.307
		c0.002,0,0.004,0,0.007-0.001c0.446-0.121,0.891-0.239,1.337-0.36c0.41-0.104,0.819-0.205,1.247-0.308
		c0.001,0,0.001-0.001,0.002-0.001c0.002,0,0.005,0,0.007-0.001c0.404-0.119,0.831-0.221,1.258-0.322l0,0
		c0.443-0.104,0.89-0.205,1.319-0.309c0,0,0,0,0,0c0.492-0.119,0.987-0.221,1.466-0.324c0.001,0,0.002,0,0.003,0v-0.001
		c0.462-0.103,0.922-0.204,1.4-0.308c0.002,0,0.004,0,0.006,0c0.526-0.119,1.072-0.223,1.619-0.324c0,0,0,0,0.001,0
		c0.001,0,0.002,0,0.004,0c0.493-0.102,0.973-0.188,1.475-0.291c0,0,0,0,0,0c0.583-0.103,1.179-0.223,1.759-0.325c0,0,0,0,0,0
		c0.482-0.068,0.945-0.155,1.421-0.239c0,0,0,0,0,0c0.428-0.067,0.853-0.136,1.297-0.205c0.001,0,0.001,0,0.002,0
		c0.411-0.069,0.819-0.137,1.243-0.188l0,0c0.002,0,0.004,0,0.007,0c0.523-0.084,1.052-0.153,1.583-0.239c0.002,0,0.004,0,0.006,0
		H67.02c0.38-0.052,0.736-0.103,1.107-0.136h0c0.003,0,0.007,0,0.011-0.001v-0.001c0.439-0.068,0.881-0.118,1.326-0.17
		c0.003,0,0.006,0,0.009,0h-0.001c0.355-0.051,0.707-0.101,1.071-0.135h0c0.008,0,0.017-0.001,0.027-0.003H70.57
		c0.336-0.05,0.693-0.084,1.053-0.119c0.001,0,0.001-0.001,0.001-0.001c0.003,0,0.007,0,0.009-0.001
		c0.316-0.049,0.635-0.083,0.951-0.1c0.006,0,0.013-0.001,0.019-0.001h-0.001c0.255-0.028,0.51-0.057,0.765-0.085
		c-4.361,2.199-12.452,4.21-24.204,5.988c-0.017,0.002-0.025,0.018-0.04,0.024c-0.023,0.009-0.042,0.018-0.06,0.036
		c-0.018,0.018-0.025,0.037-0.035,0.06c-0.006,0.015-0.021,0.023-0.023,0.04c-0.041,0.291-0.06,0.594-0.06,0.907
		c0,0.455,0.05,0.937,0.133,1.434h-0.766c-0.891-1.303-1.989-2.28-3.259-2.966C45.428,45.202,45.802,45.09,46.176,44.977z
		 M74.573,37.989l-0.826-3.017c0.037,0.014,0.076,0.025,0.112,0.041l0.025,0.008c0.079,0.022,0.167,0.062,0.256,0.099
		c0.022,0.075,0.046,0.154,0.057,0.216l0.006,0.021l0.742,2.606C74.822,37.971,74.7,37.98,74.573,37.989z M73.533,34.495
		c-0.001,0-0.002,0-0.004,0c-0.001-0.001-0.002-0.002-0.003-0.003c-0.138-0.039-0.257-0.056-0.361-0.086l-0.014-0.003
		c-0.261-0.052-0.558-0.104-0.856-0.14c-0.115-0.019-0.235-0.019-0.316-0.033c-0.003,0-0.006,0.003-0.01,0.002
		s-0.005-0.004-0.009-0.004c-0.132-0.01-0.27-0.014-0.408-0.014c-0.14,0-0.28,0.004-0.421,0.014c-0.091-0.001-0.195-0.001-0.313,0
		c-0.319,0.017-0.627,0.034-0.953,0.051c-0.007-0.001-0.025-0.001-0.058,0c-0.001,0-0.002,0.001-0.004,0.001
		c-0.001,0-0.002-0.001-0.004-0.001c-0.379,0.018-0.757,0.035-1.158,0.07c-0.315,0.016-0.641,0.033-0.988,0.068
		c-0.062,0-0.149,0.003-0.24,0.019c-0.001,0-0.002-0.001-0.003-0.001c-0.429,0.034-0.856,0.068-1.302,0.103
		c-0.417,0.034-0.828,0.085-1.235,0.12l-0.043,0.008c-0.013,0.006-0.042,0.009-0.112,0.008c-0.005,0-0.007,0.004-0.012,0.005
		c-0.004,0-0.007-0.003-0.011-0.003h-0.001c-0.004,0-0.008,0.001-0.012,0.001h0h0c-0.388,0.051-0.794,0.102-1.202,0.152
		c-0.477,0.052-0.953,0.12-1.444,0.188c-0.015,0-0.029,0-0.058,0l-0.027,0.003c-0.546,0.084-1.097,0.153-1.667,0.256
		c-0.458,0.069-0.922,0.137-1.405,0.224c-0.001,0-0.001,0.001-0.002,0.001c-0.001,0-0.002-0.001-0.003,0
		c-0.004,0.001-0.005,0.005-0.009,0.006c-0.003,0.001-0.007-0.002-0.011-0.001c-0.013,0.006-0.058,0.007-0.136,0.028
		c-0.532,0.086-1.046,0.188-1.555,0.291c-0.475,0.084-0.967,0.186-1.457,0.288c-0.008,0-0.013,0.007-0.021,0.008
		c-0.007,0.001-0.013-0.005-0.02-0.003v0c-0.511,0.12-1.024,0.222-1.559,0.342c-0.411,0.104-0.822,0.188-1.239,0.293
		c0,0,0,0-0.001,0.001c-0.089,0.019-0.141,0.035-0.212,0.048c-0.418,0.104-0.831,0.208-1.246,0.329
		c-0.391,0.086-0.782,0.187-1.174,0.306c-0.03,0.004-0.038,0.011-0.047,0.012l0.001,0.001c-0.008,0-0.013,0.008-0.021,0.009
		c-0.007,0.001-0.013-0.005-0.021-0.003c-0.001,0-0.002,0.002-0.003,0.002c-0.001,0-0.001-0.001-0.002,0
		c-0.381,0.104-0.774,0.223-1.164,0.325c-0.415,0.121-0.827,0.241-1.24,0.361c-0.056,0.02-0.101,0.035-0.161,0.049h0c0,0,0,0,0,0
		c-0.001,0-0.001,0-0.002,0c-0.002,0-0.002,0.002-0.004,0.003s-0.003-0.001-0.004,0v-0.001c-0.398,0.123-0.792,0.259-1.198,0.377
		c-0.374,0.119-0.747,0.237-1.135,0.374c-0.001,0-0.001,0-0.001,0c-0.001,0-0.002,0.001-0.003,0.001
		c-0.001,0-0.002,0.001-0.003,0.001c-0.001,0-0.002-0.001-0.004,0h-0.001c-0.119,0.035-0.246,0.072-0.39,0.125
		c-0.423,0.135-0.869,0.29-1.315,0.444c-0.348,0.121-0.706,0.258-1.061,0.375c-0.002,0-0.002,0.003-0.004,0.003s-0.002,0-0.004,0
		c-0.169,0.066-0.345,0.129-0.518,0.191c0.149-0.268,0.354-0.47,0.638-0.625c7.68-3.909,15.756-5.869,24.243-5.869
		c1.926,0,3.875,0.101,5.845,0.303c0.525,0.05,0.894,0.26,1.175,0.616c0.03,0.038,0.054,0.081,0.081,0.12
		C73.778,34.582,73.651,34.535,73.533,34.495z M38.599,68.646c0.398,0,0.785,0.002,1.164,0.005c0.393,0.004,0.778,0.007,1.156,0.007
		c5.652-0.002,9.63-0.479,11.961-1.461c0.287-0.13,0.538-0.264,0.775-0.402c0.1,0.7,0.185,1.587,0.231,2.667
		c-0.247,0.412-0.495,0.823-0.738,1.198c-2.594,4.027-5.399,6.722-8.421,8.089c-2.828,1.289-4.131,5.718-4.142,13.235
		c0,1.918,0.088,4.039,0.263,6.364l4.292,56.284c-6.996,4.487-14.57,6.737-22.75,6.737c-2.453,0-4.958-0.204-7.52-0.608
		c-1.48-1.454-2.306-3.34-2.457-5.732C10.17,128.058,8.717,99.841,8.048,70.4C21.288,69.226,31.466,68.646,38.599,68.646z
		 M22.39,161.741L22.39,161.741c8.268,0,15.933-2.28,22.996-6.822c0.615,0.028,1.208,0.043,1.771,0.043
		c3.086,0,5.416-0.405,6.998-1.238c1.583-0.825,2.412-2.125,2.404-3.799c0-0.066,0-0.134-0.002-0.202
		c-1.57-33.893-2.368-55.675-2.368-65.345c0-1.199,0.011-2.211,0.037-3.037c0.091-2.765,0.131-5.197,0.131-7.274
		c0-0.483-0.004-0.926-0.008-1.37c0.094,0.104,0.191,0.207,0.301,0.309c1.362,1.382,3.065,2.074,5.01,2.072c0.002,0,0.007,0,0.007,0
		c1.96,0,3.644-0.691,5.009-2.078c0.177-0.176,0.345-0.358,0.502-0.544c-0.118,0.864-0.194,1.68-0.194,2.409
		c0.001,1.686,0.33,3,0.965,3.976c-5.785,9.99-8.867,21.171-9.179,33.524c0,0.004,0,0.007,0,0.011
		c-0.035,0.743-0.035,1.502-0.035,2.256c-0.002,16.479,5.263,30.828,15.758,43.027l-30.669,2.338l-0.099,0.038
		c-3.571,2.788-8.616,4.207-15.183,4.207c-0.373,0-0.751-0.003-1.133-0.012c-4.551-0.189-7.881-1.22-10.023-3.02
		C17.764,161.557,20.101,161.741,22.39,161.741z M57.479,114.632c0-0.754,0-1.504,0.035-2.228
		c0.394-13.649,4.513-25.731,12.334-36.315c2.165-2.915,4.585-5.71,7.298-8.406c13.134-12.958,28.923-19.441,47.479-19.445
		c18.081,0.004,33.531,6.147,46.442,18.456c0.005,0.005,0.009,0.011,0.016,0.016c0.352,0.318,0.688,0.638,1.021,0.973
		c3.958,3.924,7.334,8.1,10.093,12.512c1.311,2.062,2.47,4.19,3.51,6.388c1.291,2.735,2.395,5.553,3.279,8.471
		c0.001,0.005,0.003,0.01,0.004,0.015c0,0.001,0.001,0.001,0.001,0.002c0.001,0.004,0.002,0.008,0.004,0.012
		c1.838,6.134,2.776,12.643,2.776,19.549c-0.003,18.351-6.552,33.947-19.665,46.93c-0.648,0.63-1.279,1.245-1.94,1.838
		c-12.728,11.751-27.888,17.606-45.542,17.607c-18.557-0.003-34.345-6.485-47.481-19.445c-1.313-1.313-2.575-2.644-3.768-4.009
		C62.774,145.397,57.482,131.124,57.479,114.632z M172.631,162.094c13.244-13.103,19.89-28.933,19.889-47.462
		c0-6.966-0.947-13.544-2.807-19.744c0-0.001,0-0.002,0-0.004v-0.002c-0.588-2.301-1.322-4.676-2.21-7.105
		c3.419,2.449,6.415,4.781,8.943,6.946c1.004,0.788,1.843,1.203,2.572,1.206c0.003,0,0.009,0,0.014,0
		c0.536,0,0.999-0.257,1.32-0.729c0.411-0.579,0.616-1.261,0.616-2.022c0-0.121-0.03-0.255-0.04-0.38
		c0.123,0.417,0.219,0.86,0.269,1.349l0.29,57.006c0.003,0.125,0.003,0.249,0.003,0.372c-0.029,8.021-3.746,11.923-11.368,11.966
		h-18.967C171.65,163.031,172.14,162.57,172.631,162.094z"/>
	<path fill="#E76E0A" d="M124.009,131.595c5.563-0.014,10.351-1.993,14.288-5.966c3.974-3.937,5.95-8.724,5.966-14.285
		c-0.016-5.583-1.992-10.37-5.966-14.339c-3.938-3.94-8.725-5.918-14.287-5.916c-5.58-0.002-10.367,1.976-14.321,5.916
		c-3.957,3.969-5.934,8.756-5.932,14.337c-0.002,5.562,1.976,10.35,5.932,14.287C113.643,129.602,118.43,131.581,124.009,131.595z
		 M104.128,111.342c0.001-5.491,1.932-10.164,5.823-14.074c3.895-3.875,8.567-5.804,14.058-5.807
		c5.473,0.001,10.146,1.933,14.022,5.807c3.91,3.91,5.839,8.583,5.857,14.076c-0.018,5.471-1.947,10.143-5.855,14.021
		c-3.879,3.909-8.551,5.839-14.025,5.859c-5.49-0.02-10.162-1.95-14.057-5.857c-3.889-3.876-5.819-8.544-5.823-14.01
		C104.128,111.349,104.128,111.345,104.128,111.342z"/>
	<path fill="#E76E0A" d="M123.993,117.115c0.003,0,0.005,0,0.009,0c1.582,0,2.957-0.574,4.081-1.701
		c1.129-1.107,1.702-2.486,1.701-4.073c0.001-1.586-0.572-2.965-1.701-4.091c-1.125-1.129-2.502-1.7-4.09-1.7
		c-1.587,0-2.964,0.571-4.09,1.7c-1.112,1.129-1.684,2.504-1.682,4.091c-0.001,1.586,0.57,2.961,1.682,4.073
		C121.028,116.543,122.406,117.115,123.993,117.115z M120.167,107.514c1.064-1.063,2.327-1.588,3.825-1.59
		c1.497,0.002,2.76,0.527,3.827,1.592c1.065,1.066,1.588,2.328,1.591,3.826c-0.002,1.499-0.526,2.76-1.59,3.809
		c-1.068,1.064-2.331,1.589-3.828,1.593c-1.499-0.004-2.761-0.529-3.827-1.593c-1.046-1.049-1.572-2.31-1.574-3.809
		C118.594,109.843,119.119,108.58,120.167,107.514z"/>
	<path fill="#E76E0A" d="M124.01,123.401c0.006,0,0.011,0,0.016,0c3.305,0,6.157-1.197,8.49-3.555
		c2.36-2.334,3.558-5.192,3.553-8.504c0.004-3.31-1.193-6.184-3.553-8.542c-2.339-2.34-5.198-3.521-8.506-3.519
		c-3.308-0.002-6.183,1.175-8.54,3.519c0,0,0,0,0,0s0,0.003-0.002,0.003c-2.343,2.354-3.521,5.23-3.518,8.539
		c-0.003,3.308,1.175,6.167,3.52,8.506C117.825,122.208,120.698,123.405,124.01,123.401z M115.988,103.337
		c0.002-0.002,0.005-0.005,0.007-0.009c2.237-2.215,4.881-3.298,8.015-3.301c3.133,0.003,5.76,1.086,7.98,3.301
		c2.231,2.236,3.331,4.882,3.335,8.013c-0.004,3.133-1.104,5.759-3.335,7.978c-2.221,2.233-4.847,3.333-7.98,3.337
		c-3.132-0.003-5.777-1.104-8.014-3.337c-2.214-2.218-3.297-4.843-3.3-7.978C112.698,108.212,113.779,105.57,115.988,103.337z"/>
	<path fill="#E76E0A" d="M124.01,135.071c0.006,0,0.012,0,0.018,0c6.524,0,12.135-2.327,16.748-6.98
		c4.639-4.616,6.985-10.232,6.979-16.767c0.005-6.532-2.34-12.165-6.979-16.798c-4.617-4.641-10.234-6.968-16.766-6.964
		c-6.548-0.004-12.166,2.324-16.817,6.963c-4.623,4.635-6.951,10.27-6.947,16.8c-0.003,6.533,2.324,12.149,6.947,16.767
		C111.844,132.749,117.461,135.075,124.01,135.071z M107.719,95.051c4.534-4.51,9.918-6.742,16.291-6.745
		c6.356,0.003,11.74,2.235,16.239,6.745c4.512,4.516,6.759,9.919,6.763,16.273c-0.004,6.356-2.251,11.742-6.763,16.239
		c-4.5,4.528-9.883,6.76-16.239,6.765c-6.373-0.005-11.757-2.237-16.291-6.765c-4.493-4.498-6.725-9.883-6.729-16.239
		C100.994,104.97,103.226,99.566,107.719,95.051z"/>
	<path fill="#E76E0A" d="M124.61,177.469c0.005,0,0.011,0,0.016,0c17.524,0,32.525-6.148,44.922-18.41
		c12.404-12.259,18.623-27.098,18.617-44.445c0.005-17.345-6.213-32.182-18.617-44.442c-12.4-12.267-27.405-18.413-44.938-18.41
		c-17.55-0.004-32.556,6.144-44.954,18.41C67.25,82.432,61.034,97.27,61.037,114.614c-0.003,17.347,6.213,32.186,18.619,44.445
		C92.054,171.325,107.06,177.473,124.61,177.469z M80.178,70.701c12.279-12.137,27.057-18.191,44.432-18.194
		c17.357,0.003,32.136,6.058,44.413,18.194c12.273,12.143,18.394,26.746,18.399,43.914c-0.005,17.168-6.125,31.773-18.399,43.915
		c-12.277,12.138-27.056,18.191-44.413,18.195c-17.375-0.004-32.153-6.058-44.432-18.195
		c-12.272-12.142-18.393-26.747-18.397-43.915C61.785,97.446,67.906,82.843,80.178,70.701z"/>
</g>
<g>
</g>
<g>
</g>
<g>
</g>
<g>
</g>
<g>
</g>
<g>
</g>
</svg>
