<?xml version="1.0" encoding="utf-8"?>
<!-- Generator: Adobe Illustrator 16.0.4, SVG Export Plug-In . SVG Version: 6.00 Build 0)  -->
<!DOCTYPE svg PUBLIC "-//W3C//DTD SVG 1.1 Tiny//EN" "http://www.w3.org/Graphics/SVG/1.1/DTD/svg11-tiny.dtd">
<svg version="1.1" baseProfile="tiny" id="Layer_1" xmlns="http://www.w3.org/2000/svg" xmlns:xlink="http://www.w3.org/1999/xlink"
	 x="0px" y="0px" width="148.148px" height="132.472px" viewBox="0 0 148.148 132.472" xml:space="preserve">
<g>
	<path fill="#E76E0A" d="M28.285,29.149v-0.703c-0.072-0.084-0.158-0.084-0.243,0v0.703C28.127,29.197,28.213,29.197,28.285,29.149z
		"/>
	<path fill="#E76E0A" d="M88.104,113.126c9.329-0.011,17.29-3.271,23.894-9.79c6.591-6.529,9.899-14.393,9.899-23.627
		c0-9.219-3.309-17.083-9.899-23.613c-6.604-6.532-14.565-9.79-23.894-9.79c-9.33,0-17.302,3.258-23.894,9.79
		c-6.604,6.531-9.898,14.395-9.898,23.613c0,9.234,3.295,17.098,9.898,23.627C70.802,109.856,78.774,113.116,88.104,113.126z
		 M65.07,56.944c6.361-6.288,14.044-9.438,23.034-9.438c9.003,0,16.672,3.15,23.034,9.438c6.36,6.288,9.535,13.873,9.535,22.766
		c0,8.895-3.175,16.479-9.535,22.767c-6.361,6.29-14.031,9.439-23.034,9.439c-8.99,0-16.672-3.149-23.034-9.439
		c-6.361-6.288-9.534-13.872-9.534-22.767C55.536,70.816,58.709,63.232,65.07,56.944z"/>
	<path fill="#E76E0A" d="M60.902,31.441c-0.576-0.001-1.089,0.209-1.498,0.62c-0.398,0.408-0.609,0.909-0.608,1.486
		c-0.001,0.577,0.208,1.088,0.608,1.487c0.409,0.411,0.922,0.621,1.498,0.62c0.001,0,0.004,0,0.006,0
		c0.574,0,1.074-0.211,1.481-0.62c0.408-0.395,0.619-0.905,0.62-1.478c0-0.003,0-0.006,0-0.009c0.002-0.577-0.21-1.078-0.62-1.486
		C61.981,31.65,61.479,31.439,60.902,31.441z M62.746,33.555c-0.003,0.511-0.181,0.94-0.542,1.291
		c-0.369,0.367-0.789,0.543-1.302,0.544c-0.513-0.001-0.947-0.178-1.312-0.542c-0.352-0.353-0.531-0.787-0.531-1.301
		c0-0.514,0.178-0.935,0.532-1.301c0.364-0.363,0.798-0.541,1.311-0.542c0.514,0.002,0.933,0.178,1.3,0.543
		c0.367,0.368,0.542,0.786,0.544,1.3C62.746,33.549,62.746,33.552,62.746,33.555z"/>
	<path fill="#E76E0A" d="M70.486,24.417c0,0,0,0,0.001,0h0c0.004,0.001,0.008,0.002,0.012,0.002
		c5.521,1.033,10.7,1.548,15.537,1.548c4.824,0,9.308-0.513,13.45-1.538c0.063-0.015,0.105-0.073,0.101-0.138
		c-0.005-0.064-0.055-0.116-0.119-0.122c-4.869-0.444-9.724-0.665-14.566-0.665c-4.807,0-9.603,0.218-14.385,0.652
		c-0.015,0-0.028,0.004-0.041,0.008c-0.001,0.001-0.002,0.001-0.004,0.002c-0.05,0.021-0.084,0.072-0.082,0.127
		C70.394,24.352,70.432,24.401,70.486,24.417L70.486,24.417z M84.903,23.769c4.567,0,9.146,0.198,13.735,0.593
		c-3.9,0.895-8.1,1.343-12.601,1.343c-4.537,0-9.381-0.456-14.529-1.369C75.962,23.958,80.428,23.769,84.903,23.769z"/>
	<path fill="#E76E0A" d="M88.115,106.583c0.001,0,0.003,0,0.005,0c7.494,0,13.904-2.635,19.208-7.865
		c5.294-5.243,7.952-11.586,7.952-19.009c0-7.409-2.658-13.747-7.946-18.989c-0.003-0.001-0.004-0.003-0.006-0.005
		c-5.305-5.232-11.717-7.867-19.212-7.865c-7.507-0.001-13.921,2.633-19.211,7.865c-5.306,5.243-7.965,11.585-7.963,18.994
		c-0.002,7.423,2.657,13.766,7.963,19.009C74.194,103.951,80.608,106.583,88.115,106.583z M69.088,60.903
		c5.25-5.188,11.581-7.788,19.027-7.79c7.432,0.001,13.767,2.602,19.028,7.79c5.246,5.201,7.871,11.46,7.872,18.806
		c-0.001,7.36-2.626,13.62-7.872,18.821c-5.261,5.188-11.596,7.788-19.028,7.789c-7.446-0.001-13.777-2.602-19.027-7.79
		c-5.26-5.2-7.884-11.46-7.885-18.82C61.205,72.363,63.829,66.104,69.088,60.903z"/>
	<path fill="#E76E0A" d="M6.606,43.207l-0.003,0.01c-0.208,0.736-0.314,1.385-0.314,1.949c-0.001,0.845,0.242,1.507,0.741,1.949
		c0.498,0.441,1.229,0.65,2.173,0.651c0.557,0,1.19-0.074,1.902-0.216c3.181-0.629,6.095-1.016,8.752-1.137
		c2.697-0.135,5.508-1.238,8.442-3.295c1.289-0.897,1.955-1.986,1.954-3.239c0-0.842-0.297-1.747-0.875-2.715
		c-1.216-2.046-2.76-3.098-4.603-3.096c-0.452,0-0.921,0.063-1.407,0.188c-0.002,0-0.003,0.001-0.004,0.001
		c-2.379,0.628-5.331,1.185-8.826,1.668C10.851,36.426,8.188,38.877,6.606,43.207z M14.575,36.186
		c3.504-0.485,6.463-1.043,8.857-1.675c0.001,0,0.002,0,0.002,0c0.467-0.121,0.914-0.18,1.342-0.18
		c1.736,0.002,3.181,0.968,4.377,2.967c0.562,0.941,0.838,1.802,0.837,2.581c-0.001,1.155-0.597,2.152-1.841,3.023
		c-2.907,2.039-5.671,3.117-8.304,3.249c-2.673,0.121-5.6,0.51-8.791,1.141c-0.699,0.141-1.316,0.211-1.85,0.21
		c-1.817-0.02-2.633-0.751-2.652-2.336c0-0.528,0.1-1.154,0.302-1.87C8.424,39.023,10.993,36.679,14.575,36.186z"/>
	<path fill="#E76E0A" d="M42.17,49.878c0.002,0,0.004,0,0.006,0c0.864,0,1.605-0.308,2.207-0.911
		c0.616-0.614,0.924-1.358,0.923-2.225c0-0.855-0.308-1.599-0.923-2.214c-0.602-0.604-1.345-0.924-2.213-0.923
		c-0.856-0.001-1.611,0.319-2.214,0.923c-0.616,0.615-0.924,1.358-0.923,2.214c0,0.867,0.308,1.611,0.923,2.225
		C40.56,49.572,41.315,49.88,42.17,49.878z M40.143,44.715c0.56-0.56,1.236-0.845,2.027-0.846c0.804,0.001,1.466,0.286,2.026,0.846
		c0.572,0.573,0.845,1.234,0.847,2.027c0,0.003,0,0.005,0,0.008c-0.003,0.801-0.277,1.46-0.847,2.031
		c-0.56,0.559-1.221,0.833-2.026,0.834c-0.793-0.001-1.468-0.276-2.027-0.834c-0.571-0.573-0.845-1.233-0.846-2.039
		C39.298,45.949,39.572,45.288,40.143,44.715z"/>
	<path fill="#E76E0A" d="M17.912,43.749c0.658,0.448,1.656,0.658,2.999,0.66c0.23-0.001,0.469-0.008,0.717-0.019
		c1.7-0.086,3.103-0.465,4.183-1.135c1.301-0.813,1.983-2.037,2.023-3.601v0c0,0,0,0,0,0c0-0.002,0-0.004,0-0.006c0,0,0,0,0-0.001
		c0.02-0.167,0.032-0.332,0.03-0.494c0.002-1.088-0.483-2.05-1.433-2.857c-0.701-0.594-1.522-0.893-2.444-0.892
		c-1.314,0.001-2.828,0.598-4.55,1.768c-1.271,0.893-2.078,1.714-2.399,2.533c-0.161,0.397-0.237,0.792-0.237,1.181
		c0,0.12,0.008,0.239,0.022,0.357c-0.016,0.138-0.024,0.271-0.024,0.401C16.797,42.536,17.174,43.256,17.912,43.749z M25.67,43.032
		c-1.028,0.638-2.388,1.011-4.056,1.095c-0.245,0.012-0.479,0.018-0.704,0.018c-1.315,0.001-2.266-0.212-2.851-0.613
		c-0.537-0.364-0.84-0.832-0.946-1.421c0.419,0.81,1.354,1.229,2.771,1.261c0.134,0.003,0.267,0.004,0.4,0.004c0,0,0.001,0,0.002,0
		c1.542,0,2.973-0.198,4.293-0.604c1.297-0.395,2.217-0.97,2.738-1.732C27.025,41.857,26.482,42.519,25.67,43.032z M17.283,39.8
		c0.286-0.734,1.054-1.536,2.305-2.414c1.695-1.153,3.167-1.722,4.4-1.72c0.865,0,1.616,0.273,2.273,0.829
		c0.905,0.773,1.339,1.649,1.341,2.657c0,0.151-0.009,0.304-0.03,0.461c0,0,0,0,0,0.001c-0.024,0.132-0.048,0.271-0.081,0.393
		c-0.254,1.142-1.227,1.972-2.99,2.514c-1.292,0.397-2.697,0.591-4.217,0.591c-0.131,0-0.262,0-0.393-0.004
		c-1.461-0.038-2.299-0.46-2.62-1.227c-0.091-0.207-0.149-0.424-0.184-0.656c0,0,0,0,0-0.001c-0.015-0.114-0.022-0.227-0.022-0.34
		C17.065,40.531,17.135,40.17,17.283,39.8z"/>
	<path fill="#E76E0A" d="M18.786,65.206c0.002,0,0.004,0,0.006,0c0.983,0,1.828-0.452,2.508-1.323
		c0.687-0.885,1.023-1.948,1.022-3.171c0.001-1.235-0.335-2.299-1.022-3.171c-0.682-0.885-1.528-1.337-2.514-1.335
		c-0.986-0.002-1.844,0.451-2.527,1.335c-0.687,0.872-1.022,1.936-1.021,3.171c0,1.223,0.336,2.286,1.021,3.17
		C16.942,64.756,17.799,65.207,18.786,65.206z M16.466,57.704c0.65-0.836,1.416-1.232,2.32-1.233
		c0.904,0.001,1.657,0.397,2.307,1.233c0.646,0.824,0.966,1.82,0.966,3.009c0,1.176-0.32,2.172-0.966,3.008
		c-0.649,0.824-1.403,1.22-2.307,1.223c-0.904-0.003-1.67-0.399-2.32-1.223c-0.646-0.836-0.965-1.833-0.965-3.008
		C15.501,59.523,15.819,58.527,16.466,57.704z"/>
	<path fill="#E76E0A" d="M88.104,121.957c0.003,0,0.008,0,0.01,0c11.775,0.001,21.859-4.141,30.199-12.375
		c8.334-8.244,12.513-18.211,12.51-29.872c0.003-11.656-4.176-21.626-12.51-29.872c-0.002-0.002-0.005-0.004-0.008-0.007
		c-8.341-8.231-18.427-12.37-30.202-12.367c-11.791-0.002-21.88,4.138-30.209,12.374c-8.346,8.244-12.525,18.215-12.522,29.872
		c-0.003,11.661,4.176,21.628,12.522,29.872C66.223,117.819,76.313,121.959,88.104,121.957z M58.265,50.212
		c8.245-8.146,18.172-12.22,29.839-12.222c11.654,0.002,21.582,4.077,29.838,12.223c0.004,0.002,0.004,0.004,0.007,0.006
		c8.237,8.16,12.345,17.963,12.347,29.491c-0.002,11.534-4.112,21.337-12.354,29.498c-8.257,8.146-18.185,12.22-29.838,12.223
		c-11.667-0.003-21.594-4.076-29.839-12.223c-8.254-8.161-12.363-17.964-12.365-29.498C45.901,68.179,50.01,58.373,58.265,50.212z"
		/>
	<path fill="#E76E0A" d="M88.117,109.562c0.001,0,0.005,0,0.008,0c8.311,0,15.439-2.929,21.33-8.738
		c5.888-5.823,8.843-12.884,8.838-21.114c0.005-8.225-2.948-15.284-8.831-21.092c-0.003-0.002-0.003-0.005-0.005-0.007
		c-5.896-5.824-13.028-8.741-21.34-8.738c-8.326-0.002-15.458,2.914-21.341,8.739c-5.898,5.81-8.853,12.87-8.851,21.099
		c-0.002,8.23,2.953,15.291,8.851,21.114C72.658,106.635,79.79,109.564,88.117,109.562z M67.145,58.985
		c5.798-5.734,12.769-8.584,20.972-8.587c8.189,0.002,15.159,2.854,20.969,8.587c5.795,5.726,8.68,12.621,8.682,20.724
		c-0.002,8.105-2.887,15.001-8.682,20.739c-5.81,5.723-12.78,8.584-20.969,8.588c-8.202-0.004-15.174-2.865-20.972-8.588
		c-5.806-5.738-8.691-12.634-8.694-20.739C58.454,71.606,61.339,64.711,67.145,58.985z"/>
	<path fill="#E76E0A" d="M142.992,65.231c0-0.024,0-0.048,0-0.061c-0.099-0.957-0.377-1.756-0.824-2.398
		c-0.256-0.375-0.57-0.69-0.934-0.957c0.292-4.422,0.182-8.748-0.326-12.989c-0.207-1.781-0.486-3.55-0.836-5.294
		c-1.359-6.858-5.913-11.401-13.682-13.594c-8.408-2.375-13.654-6.943-15.738-13.704c-1.805-5.853-4.774-9.16-8.917-9.9
		C91.556,4.419,80.966,4.492,69.965,6.54c-4.822,0.884-8.518,4.241-11.075,10.068c-1.526,3.49-3.283,6.289-5.271,8.421l-0.448-1.551
		l0.012,0.012c-0.025-0.096-0.06-0.193-0.085-0.291c-0.086-0.218-0.194-0.412-0.315-0.569c-0.315-0.424-0.764-0.667-1.345-0.727
		c-7.669-0.776-14.891,0.557-21.677,4.022h-0.011c-0.473,0.243-0.776,0.63-0.934,1.151c-0.049,0.17-0.084,0.363-0.084,0.582
		c-0.376-0.243-0.861-0.243-1.466-0.012l-2.108,0.774c-0.013,0.012-0.013,0.012-0.025,0.012c-0.691,0.267-1.066,0.764-1.103,1.491
		c-0.557,0.29-1.139,0.581-1.745,0.86c-1.164,0.545-2.424,1.078-3.792,1.599c-1.624,0.606-3.381,1.188-5.283,1.745
		c-4.799,1.369-7.56,6.082-8.251,14.152c-0.012,0.012-0.012,0.036-0.012,0.061c0.484,20.889,1.514,40.893,3.089,60.012v-0.011
		c0.121,1.889,0.787,3.405,1.988,4.556c1.611,1.599,4.252,2.472,7.911,2.629c0.013,0,0.013,0,0.013,0
		c5.126,0.121,9.074-0.884,11.862-3.018l21.615-1.635c0.8,0.896,1.636,1.78,2.508,2.641c9.439,9.342,20.84,14.008,34.18,14.008
		c12.615,0,23.481-4.169,32.618-12.517h13.703c2.956-0.013,5.173-0.813,6.628-2.425c1.467-1.563,2.18-3.912,2.133-7.039
		L142.992,65.231z M19.452,32.79c2.516-0.536,4.82-0.788,6.882-0.732c0.545,0.594,1.03,0.739,1.455,0.449
		c0.412-0.279,0.909-0.4,1.478-0.328c0.691,0.073,1.103,0.254,1.236,0.521c0.169,0.339,0.327,0.375,0.484,0.146
		c0.218-0.654,0.133-1.031-0.254-1.139c-1.067-0.133-1.817-0.206-2.254-0.231c-0.423-0.023-0.678,0.085-0.727,0.339
		c-0.073,0.279-0.375,0.413-0.884,0.364c0-1.309,0.448-2.011,1.32-2.107c-0.133-0.364-0.521-0.449-1.187-0.243
		c-0.655,0.194-1.018,0.461-1.067,0.824c-0.048,0.376-0.229,0.667-0.532,0.872c-0.389,0.254-0.582,0.098-0.558-0.484
		c0.013-0.654,0.461-1.114,1.333-1.369c0.957-0.279,1.612-0.376,1.939-0.291c0.35,0.085,0.593,0.315,0.738,0.679
		c0.091,0.008,0.187,0.012,0.281,0.017c-0.004,0.07,0.049,0.132,0.12,0.139c0.274,0.023,0.534,0.06,0.793,0.118
		c0.002,0,0.004,0,0.006,0l0,0c0.196,0.035,0.409,0.093,0.614,0.154c0,0,0,0,0.001,0c0.272,0.083,0.545,0.189,0.793,0.308
		c0.997,0.474,1.837,1.208,2.516,2.22c0.024,0.037,0.065,0.058,0.11,0.058h0.685c0.142,0.243,0.275,0.485,0.409,0.741
		c0,0,0,0,0,0.001c1.492,2.85,2.385,6.334,2.663,10.428c0.022,0.453,0.036,0.91,0.057,1.368c-0.185,0.115-0.384,0.224-0.622,0.333
		c-1.576,0.667-4.373,1.011-8.351,1.011c-0.267,0-0.538-0.002-0.814-0.004c-0.269-0.003-0.544-0.005-0.826-0.005
		c-5.051,0-12.241,0.411-21.588,1.24c0.702-7.615,3.28-12.035,7.729-13.348c1.905-0.558,3.689-1.152,5.328-1.772
		C19,32.974,19.218,32.881,19.452,32.79z M24.76,30.092c0.006-0.492,0.205-0.793,0.654-0.979l2.104-0.774
		c0.188-0.068,0.35-0.101,0.486-0.101c0.255,0.004,0.417,0.097,0.553,0.332l0.654,1.164c0.03,0.053,0.09,0.078,0.148,0.062
		c0.058-0.015,0.099-0.067,0.099-0.126V27.9c0-0.209,0.024-0.391,0.061-0.558c0.143-0.054,0.29-0.107,0.438-0.162l0.608,2.708
		c-0.169,0.057-0.338,0.114-0.502,0.18c-0.26-0.057-0.518-0.095-0.787-0.118c-0.029-0.002-0.054,0.01-0.077,0.024
		c-0.11-0.151-0.216-0.306-0.285-0.463c-0.073-0.206-0.207-0.387-0.376-0.57c-0.012,0.122-0.048,0.207-0.121,0.268
		c-0.049,0.048-0.121,0.072-0.218,0.084c-0.255,0.012-0.388-0.073-0.424-0.267c-0.037-0.218-0.121-0.254-0.267-0.109
		c-0.084,0.072-0.17,0.133-0.279,0.157c-0.158,0.049-0.327,0.109-0.484,0.158c-0.194,0.073-0.4,0.157-0.606,0.267
		c-0.194,0.085-0.399,0.145-0.63,0.17c-0.229,0.024-0.423,0.121-0.557,0.303c-0.072,0.084-0.122,0.193-0.133,0.314
		c-0.025,0.218-0.098,0.388-0.219,0.533c-0.145,0.169-0.363,0.243-0.629,0.207c-0.218-0.037-0.364,0.036-0.449,0.181
		c-0.121,0.243-0.338,0.315-0.642,0.243c-0.022-0.04-0.057-0.059-0.092-0.079c0.666-0.323,1.311-0.647,1.913-0.981
		c0.045-0.026,0.071-0.077,0.066-0.128C24.764,30.204,24.76,30.147,24.76,30.092z M140.653,56.996c0,1.605-0.059,3.223-0.166,4.855
		c-0.505-0.422-1.049-0.849-1.633-1.269c-0.095-3.304-0.24-6.012-0.446-8.111c-0.023-0.245-0.035-0.476-0.035-0.694
		c0.014-1.585,0.604-2.433,1.825-2.714C140.5,51.674,140.653,54.317,140.653,56.996z M47.087,54.676
		c0.867-1.493,1.82-2.939,2.845-4.351c1.385-1.879,2.928-3.713,4.617-5.461c9.289-9.634,20.448-14.431,33.566-14.435
		c12.25,0.002,22.787,4.188,31.698,12.566c0.627,0.602,1.253,1.217,1.867,1.867c0.715,0.738,1.401,1.486,2.051,2.244
		c2.377,2.737,4.389,5.642,6.04,8.69c0.204,0.379,0.39,0.759,0.582,1.138c-0.349-0.62-0.703-1.237-1.087-1.841
		c-1.974-3.154-4.386-6.138-7.21-8.939c-0.24-0.242-0.485-0.473-0.74-0.704c-0.001-0.001-0.001-0.001-0.002-0.002
		c-9.215-8.791-20.296-13.197-33.199-13.194c-13.245-0.003-24.569,4.646-33.941,13.9c-1.937,1.924-3.665,3.921-5.212,6.004
		c-1.111,1.503-2.113,3.051-3.016,4.641C46.313,56.085,46.684,55.374,47.087,54.676z M106.419,15.108H66.924
		c-0.713,0.036-1.359,0.119-1.969,0.226c-0.54-0.198-0.757-0.451-0.76-0.805c0-0.078,0.011-0.162,0.034-0.251
		c0.565-1.767,1.132-3.055,1.689-3.873c0.703-1.018,1.864-1.692,3.527-2.003c5.702-1.078,11.462-1.615,17.283-1.615
		c4.381,0,8.795,0.304,13.245,0.913c2.577,0.255,4.281,1.146,5.174,2.686c0.933,1.574,1.502,2.64,1.726,3.161
		c0.059,0.141,0.089,0.282,0.089,0.425C106.96,14.314,106.787,14.69,106.419,15.108z M64.958,15.599
		C64.959,15.599,64.959,15.599,64.958,15.599c0.614-0.108,1.264-0.192,1.973-0.229l39.545,0c1.494,0.135,2.539,0.903,3.208,2.371
		l9.859,24.304c-8.866-8.08-19.344-12.144-31.428-12.142C74.868,29.9,63.54,34.772,54.169,44.5c-1.474,1.526-2.83,3.118-4.077,4.748
		c2.696-10.473,4.688-17.637,5.991-21.462c1.429-4.213,2.639-7.201,3.625-8.956c0.769-1.384,2.079-2.355,3.969-2.919
		C64.084,15.779,64.514,15.683,64.958,15.599z M130.295,55.668c-0.021-0.041-0.041-0.081-0.062-0.121
		c-1.67-3.083-3.704-6.02-6.103-8.783c-0.056-0.065-0.119-0.127-0.175-0.192c-1.798-5.886-4.218-12.262-7.292-19.122
		c3.425,2.387,7.532,4.456,12.337,6.209c4.827,1.74,7.632,10.341,8.2,25.791C135.25,58.184,132.949,56.92,130.295,55.668z
		 M132.358,60.146c-0.001-0.002-0.003-0.002-0.004-0.004c-0.309-0.798-0.646-1.576-1.001-2.354c3.739,2.17,6.67,4.385,8.777,6.656
		c0.667,0.571,1.116,0.69,1.333,0.364c0.154-0.244,0.233-0.623,0.233-1.129c0.079,0.311,0.133,0.607,0.133,0.876
		c0,0.493-0.129,0.915-0.389,1.279c-0.195,0.278-0.424,0.4-0.728,0.403c-0.408,0.002-0.971-0.253-1.652-0.793
		c-1.869-1.599-4.093-3.33-6.652-5.15C132.39,60.244,132.376,60.196,132.358,60.146z M138.109,51.778
		c0,0.228,0.013,0.468,0.037,0.72c0.199,2.047,0.344,4.688,0.44,7.896c-0.359-0.259-0.727-0.51-1.113-0.771
		c-0.573-15.583-3.311-24.33-8.383-26.211c-4.972-1.815-9.19-3.967-12.667-6.454c-0.048-0.035-0.113-0.033-0.162,0.005
		c-0.045,0.038-0.06,0.101-0.034,0.156c3.069,6.811,5.494,13.142,7.309,18.994c-0.482-0.542-0.963-1.085-1.475-1.615
		c-0.621-0.656-1.254-1.277-1.886-1.884c-0.06-0.056-0.122-0.108-0.182-0.164l-10.068-24.813c-0.655-1.461-1.735-2.298-3.194-2.495
		c0.314-0.396,0.491-0.784,0.493-1.17c0-0.18-0.038-0.356-0.11-0.528c-0.235-0.546-0.807-1.613-1.739-3.191
		c-0.949-1.634-2.758-2.559-5.372-2.814c-4.455-0.609-8.881-0.914-13.275-0.914c-5.836,0-11.614,0.539-17.333,1.619
		c-1.705,0.317-2.943,1.025-3.694,2.114c-0.583,0.855-1.153,2.161-1.726,3.948c-0.03,0.116-0.044,0.222-0.044,0.324
		c-0.002,0.389,0.22,0.692,0.601,0.903c-0.316,0.067-0.635,0.13-0.933,0.227c-1.935,0.575-3.315,1.59-4.121,3.042
		c-1.001,1.784-2.214,4.779-3.645,9c-1.333,3.914-3.375,11.276-6.152,22.083c-0.057,0.077-0.118,0.153-0.175,0.23
		c-0.978,1.347-1.886,2.729-2.724,4.153c-0.368-0.623-0.573-1.464-0.573-2.562c0-0.632,0.065-1.344,0.195-2.134
		c0.288-0.44,0.507-0.922,0.641-1.419c0-0.001,0.001-0.001,0.001-0.002c2.601-9.052,5.541-16.734,8.817-23.071
		c0.805-1.145,1.533-2.46,2.178-3.919c0.029-0.066-0.001-0.144-0.067-0.174c-0.066-0.029-0.144,0.001-0.173,0.068v-0.001
		c-0.639,1.447-1.362,2.749-2.156,3.879c-1.938,2.743-4.36,4.588-7.265,5.549c-4.121,1.357-8.458,2.428-13.01,3.225
		c-0.127-0.241-0.254-0.475-0.392-0.708c-0.072-0.387-0.109-0.756-0.108-1.102c-0.001-0.177,0.014-0.345,0.033-0.51
		c8.829-1.343,14.726-2.861,17.692-4.567c0.283-0.161,0.542-0.333,0.775-0.504c0.308-0.222,0.569-0.445,0.783-0.686
		c2.047-2.18,3.847-5.065,5.415-8.625c2.452-5.586,5.951-8.777,10.542-9.641c5.642-1.054,11.179-1.58,16.604-1.58
		c5.056,0,10.015,0.458,14.874,1.374c3.862,0.729,6.638,3.833,8.356,9.384c2.145,7.015,7.586,11.751,16.24,14.204
		c7.48,2.116,11.836,6.454,13.163,13.033c0.331,1.692,0.604,3.396,0.817,5.124C138.81,49.086,138.097,50.118,138.109,51.778z
		 M32.175,107.947l-3.032-39.757c-0.123-1.637-0.184-3.132-0.184-4.48c-0.006-5.298,0.967-8.329,2.773-9.117
		c2.201-0.997,4.216-2.944,6.066-5.817c0.107-0.165,0.213-0.344,0.32-0.519c0.018,0.448,0.035,0.925,0.044,1.456
		c0.005,0.416,0.008,0.859,0.008,1.329c0,1.464-0.029,3.181-0.093,5.135c-0.019,0.588-0.026,1.306-0.026,2.155
		c0,6.849,0.564,22.248,1.674,46.211c0.001,0.043,0.001,0.088,0.001,0.133c-0.004,1.098-0.507,1.894-1.559,2.454
		c-1.055,0.556-2.667,0.847-4.826,0.845C32.97,107.974,32.578,107.962,32.175,107.947z M47.197,46.621
		c-0.04-1.336-0.518-2.489-1.468-3.426c-0.965-0.979-2.157-1.481-3.547-1.479c-1.376-0.001-2.579,0.5-3.546,1.481
		c-0.213,0.205-0.395,0.428-0.559,0.66c-0.302-3.89-1.164-7.233-2.583-10.006c4.535-0.797,8.86-1.865,12.97-3.219
		c2.558-0.846,4.75-2.373,6.567-4.566C52.151,31.854,49.541,38.7,47.197,46.621z M38.423,49.659
		c-0.011-0.645-0.033-1.225-0.056-1.745c0.181,0.61,0.495,1.168,0.984,1.648c0.771,0.784,1.719,1.176,2.825,1.176
		c0.002,0,0.004,0,0.006,0c1.096,0.001,2.047-0.391,2.819-1.178c0.774-0.771,1.167-1.721,1.166-2.818
		c0-1.098-0.392-2.047-1.166-2.832c-0.772-0.774-1.723-1.167-2.819-1.166c-1.109-0.001-2.059,0.391-2.832,1.166
		c-0.644,0.642-1.001,1.401-1.114,2.255c-0.021-0.178-0.043-0.345-0.067-0.494c-0.022-0.464-0.036-0.932-0.058-1.4
		c0.185-0.316,0.422-0.613,0.709-0.888c0.926-0.936,2.049-1.404,3.361-1.405c1.326,0.001,2.436,0.468,3.36,1.403
		c0.935,0.924,1.391,2.034,1.404,3.362c-0.012,0.423-0.06,0.839-0.154,1.24c-0.128,0.479-0.34,0.951-0.623,1.375
		c-0.176,0.257-0.388,0.506-0.626,0.743c-0.924,0.934-2.034,1.39-3.361,1.391c-1.313-0.001-2.436-0.457-3.359-1.391
		C38.667,49.957,38.546,49.814,38.423,49.659z M38.449,46.742c0.001-1.037,0.348-1.904,1.088-2.646
		c0.731-0.728,1.597-1.087,2.646-1.089c1.034,0.002,1.903,0.361,2.632,1.089c0.728,0.742,1.087,1.61,1.088,2.646
		c-0.001,1.035-0.36,1.903-1.088,2.632c-0.73,0.741-1.597,1.099-2.632,1.101c-1.049-0.002-1.915-0.36-2.646-1.1
		C38.797,48.646,38.45,47.778,38.449,46.742z M51.842,23.297l0.617,2.257c-0.137,0.01-0.275,0.018-0.407,0.035c0,0-0.001,0-0.001,0
		c-0.183,0.011-0.35,0.027-0.517,0.04l-0.499-2.473c0.013,0.001,0.033,0.003,0.044,0.005c0.206,0.024,0.406,0.06,0.585,0.095
		C51.731,23.274,51.786,23.285,51.842,23.297z M53.062,25.774l0.077,0.276c-0.139,0.101-0.295,0.197-0.451,0.294l0.057-0.549
		C52.853,25.788,52.959,25.781,53.062,25.774z M31.706,29.766c0.266-0.091,0.539-0.183,0.813-0.274l-0.036,0.757
		c-0.273,0.082-0.547,0.164-0.82,0.246L31.706,29.766z M32.785,29.406c0.216-0.069,0.435-0.134,0.65-0.197l-0.053,0.773
		c-0.212,0.06-0.423,0.123-0.633,0.188L32.785,29.406z M33.705,29.127c0.175-0.054,0.352-0.106,0.529-0.16l-0.062,0.795
		c-0.175,0.047-0.347,0.095-0.52,0.143L33.705,29.127z M34.503,28.889c0.225-0.061,0.451-0.122,0.676-0.183l-0.063,0.8
		c-0.225,0.061-0.451,0.122-0.676,0.183L34.503,28.889z M35.448,28.633c0.192-0.057,0.393-0.111,0.595-0.168l-0.046,0.822
		c-0.208,0.05-0.41,0.101-0.612,0.151L35.448,28.633z M36.31,28.394c0.212-0.052,0.42-0.103,0.63-0.154l-0.044,0.817
		c-0.211,0.051-0.422,0.104-0.63,0.162L36.31,28.394z M37.208,28.176c0.226-0.06,0.458-0.113,0.696-0.166l-0.073,0.826
		c-0.218,0.052-0.443,0.104-0.669,0.156L37.208,28.176z M38.174,27.947c0.254-0.063,0.517-0.124,0.783-0.18l-0.082,0.837
		c-0.252,0.054-0.513,0.111-0.774,0.171L38.174,27.947z M39.226,27.706c0.239-0.053,0.483-0.106,0.724-0.159l-0.083,0.84
		c-0.246,0.053-0.485,0.106-0.724,0.159L39.226,27.706z M40.219,27.491c0.295-0.056,0.587-0.112,0.882-0.167l-0.082,0.831
		c-0.296,0.055-0.59,0.113-0.881,0.176L40.219,27.491z M41.371,27.273c0.252-0.052,0.515-0.099,0.783-0.144l-0.092,0.819
		c-0.258,0.052-0.514,0.101-0.773,0.152L41.371,27.273z M42.423,27.081c0.312-0.063,0.633-0.115,0.958-0.17l-0.073,0.807
		c-0.325,0.058-0.653,0.121-0.976,0.18L42.423,27.081z M43.649,26.864c0.252-0.038,0.503-0.078,0.758-0.116l-0.091,0.797
		c-0.25,0.044-0.494,0.086-0.74,0.125L43.649,26.864z M44.676,26.707c0.216-0.035,0.438-0.069,0.661-0.104l-0.099,0.795
		c-0.222,0.035-0.438,0.069-0.652,0.104L44.676,26.707z M45.608,26.563c0.201-0.025,0.406-0.053,0.614-0.084l-0.1,0.786
		c-0.209,0.027-0.412,0.059-0.614,0.092L45.608,26.563z M46.493,26.443c0.277-0.037,0.561-0.074,0.846-0.11l-0.09,0.762
		c-0.284,0.044-0.569,0.085-0.855,0.128L46.493,26.443z M47.607,26.3c0.168-0.018,0.334-0.038,0.499-0.056l-0.071,0.751
		c-0.174,0.018-0.346,0.04-0.517,0.063L47.607,26.3z M48.374,26.214c0.225-0.026,0.445-0.052,0.668-0.078l-0.063,0.739
		c-0.225,0.026-0.45,0.055-0.676,0.087L48.374,26.214z M49.308,26.108c0.17-0.016,0.348-0.033,0.529-0.049l-0.081,0.719
		c-0.174,0.018-0.343,0.04-0.51,0.063L49.308,26.108z M50.105,26.033c0.164-0.021,0.328-0.039,0.493-0.055l-0.089,0.714
		c-0.163,0.016-0.324,0.034-0.484,0.054L50.105,26.033z M50.866,25.951c0.139-0.01,0.276-0.022,0.413-0.037l-0.08,0.704
		c-0.141,0.01-0.281,0.025-0.42,0.044L50.866,25.951z M51.545,25.892c0.122-0.009,0.244-0.019,0.367-0.029l-0.061,0.683
		c-0.128,0.014-0.256,0.029-0.384,0.043L51.545,25.892z M52.41,26.486c-0.099,0.011-0.196,0.021-0.293,0.031l0.061-0.675
		c0.097-0.011,0.199-0.019,0.302-0.026L52.41,26.486z M50.761,23.134l0.508,2.516c-0.177,0.019-0.351,0.038-0.528,0.047
		c-0.001,0-0.002,0.001-0.003,0.001s-0.001,0-0.002,0l-0.001-0.001c-0.214,0.021-0.431,0.045-0.647,0.073l-0.57-2.603
		c0.192-0.01,0.378-0.02,0.56-0.03c0.076,0,0.149,0,0.222,0c0.102-0.007,0.196-0.01,0.29-0.01
		C50.648,23.128,50.705,23.132,50.761,23.134z M49.25,23.18l0.575,2.616c-0.223,0.02-0.444,0.04-0.651,0.059
		c-0.001,0-0.001,0.001-0.002,0.001c0,0-0.001,0-0.001,0c-0.274,0.032-0.54,0.063-0.812,0.094l-0.529-2.679
		c0.004,0,0.008-0.001,0.012-0.001h0.012c0.238-0.024,0.466-0.037,0.696-0.048C48.792,23.201,49.021,23.191,49.25,23.18z
		 M47.565,23.292l0.531,2.688c-0.208,0.023-0.416,0.05-0.619,0.069c-0.001,0-0.001,0.001-0.002,0.001s-0.001,0-0.002,0
		c-0.335,0.043-0.668,0.086-0.995,0.13l-0.563-2.743c0.286-0.024,0.567-0.059,0.846-0.082C47.035,23.334,47.3,23.313,47.565,23.292z
		 M45.652,23.466l0.564,2.749c-0.25,0.038-0.497,0.071-0.743,0.102c0,0-0.001,0.001-0.001,0.001c-0.001,0-0.001,0-0.002,0
		c-0.274,0.042-0.545,0.084-0.812,0.126l-0.631-2.768c0.299-0.042,0.594-0.083,0.882-0.115
		C45.163,23.529,45.41,23.498,45.652,23.466z M43.764,23.704l0.633,2.779c-0.302,0.045-0.598,0.095-0.888,0.136
		c0,0-0.001,0.001-0.001,0.001c-0.001,0-0.001,0-0.002,0c-0.367,0.065-0.736,0.124-1.1,0.196l-0.598-2.805
		c0.289-0.049,0.572-0.094,0.855-0.136C43.036,23.807,43.398,23.76,43.764,23.704z M41.548,24.059l0.599,2.805
		c-0.314,0.052-0.623,0.105-0.921,0.169c0,0,0,0-0.001,0c-0.347,0.065-0.684,0.13-1.027,0.194l-0.654-2.783
		c0.31-0.064,0.62-0.128,0.917-0.181C40.823,24.19,41.18,24.118,41.548,24.059z M39.285,24.495l0.656,2.785
		c-0.286,0.062-0.579,0.126-0.864,0.189c0,0,0,0,0,0c-0.319,0.064-0.625,0.138-0.923,0.212l-0.589-2.795
		c0.248-0.06,0.497-0.114,0.75-0.178C38.64,24.634,38.961,24.568,39.285,24.495z M37.282,24.951
		c0.011-0.002,0.016-0.004,0.025-0.006l0.588,2.797c-0.29,0.063-0.569,0.126-0.845,0.201v0c-0.26,0.062-0.512,0.125-0.768,0.188
		l-0.643-2.748c0.255-0.077,0.51-0.145,0.766-0.2l0.009-0.002C36.703,25.096,36.992,25.024,37.282,24.951z M35.385,25.448
		l0.643,2.749c-0.248,0.07-0.498,0.135-0.741,0.208l0,0c-0.271,0.073-0.541,0.146-0.811,0.218l-0.655-2.728
		c0.002-0.001,0.004-0.001,0.006-0.002c0.287-0.083,0.577-0.168,0.868-0.252C34.928,25.579,35.159,25.511,35.385,25.448z
		 M33.569,25.972l0.654,2.723c-0.224,0.069-0.449,0.133-0.677,0.206c0,0-0.001,0-0.001,0c-0.26,0.073-0.526,0.156-0.788,0.238
		l-0.598-2.713c0.236-0.081,0.468-0.156,0.697-0.23C33.102,26.125,33.336,26.046,33.569,25.972z M31.907,26.507l0.598,2.712
		c-0.326,0.108-0.651,0.217-0.968,0.326c0,0-0.001,0.001-0.001,0.001c-0.242,0.08-0.482,0.165-0.719,0.253l-0.609-2.71
		c0.219-0.075,0.437-0.155,0.642-0.227c0.314-0.109,0.628-0.218,0.929-0.314C31.826,26.53,31.865,26.52,31.907,26.507z
		 M30.582,30.193c-0.017-0.005-0.033-0.008-0.05-0.013c0.018-0.006,0.034-0.013,0.051-0.019L30.582,30.193z M30.85,30.067
		c0.191-0.073,0.389-0.141,0.588-0.208l-0.039,0.628c-0.181-0.079-0.366-0.154-0.557-0.216L30.85,30.067z M32.648,30.474
		C32.649,30.474,32.649,30.474,32.648,30.474c0.001-0.001,0.002,0,0.003-0.001c0.287-0.095,0.587-0.18,0.891-0.264l0,0
		c0.265-0.072,0.517-0.145,0.779-0.216c0.002,0,0.005,0,0.007-0.001c0.315-0.085,0.63-0.169,0.945-0.254l0,0
		c0.29-0.074,0.58-0.146,0.881-0.218c0,0,0,0,0.001,0c0.002,0,0.004,0,0.006-0.001c0.286-0.084,0.587-0.156,0.89-0.228c0,0,0,0,0,0
		c0.313-0.073,0.629-0.145,0.933-0.218l0,0c0.348-0.084,0.698-0.157,1.037-0.229c0.001,0,0.001,0,0.002,0v-0.001
		c0.326-0.072,0.652-0.144,0.99-0.217c0.001,0,0.003,0,0.005,0c0.372-0.083,0.758-0.157,1.145-0.229c0,0,0.001,0,0.001-0.001
		c0.001,0,0.002,0,0.002,0c0.349-0.072,0.688-0.133,1.043-0.206c0,0,0,0,0.001,0c0.411-0.072,0.83-0.156,1.237-0.229
		c0.001,0,0.001,0,0.002,0h-0.001c0.343-0.049,0.672-0.11,1.01-0.17c0,0,0,0,0,0c0.302-0.048,0.603-0.096,0.917-0.145
		c0.001,0,0.001,0,0.002,0c0.291-0.049,0.579-0.097,0.879-0.132c0,0,0,0,0.001,0c0.001,0,0.003,0,0.004,0
		c0.368-0.06,0.741-0.108,1.116-0.168c0.003,0,0.005,0,0.008,0h-0.001c0.268-0.037,0.519-0.072,0.78-0.096
		c0.004,0,0.007,0,0.011-0.001v-0.001c0.311-0.048,0.623-0.084,0.938-0.12c0.002,0,0.004,0,0.006,0h-0.001
		c0.254-0.037,0.506-0.073,0.769-0.097c0,0,0,0,0,0c0.002,0,0.005,0,0.008-0.001h0c0.237-0.035,0.49-0.059,0.745-0.084l0,0
		c0.002,0,0.005,0,0.007,0c0.223-0.035,0.447-0.059,0.669-0.071c0,0,0,0,0.001,0c0.005,0,0.011-0.001,0.016-0.001h-0.001
		c0.181-0.02,0.361-0.04,0.542-0.06c-3.083,1.555-8.804,2.977-17.114,4.234c-0.012,0.002-0.018,0.012-0.028,0.017
		c-0.017,0.007-0.03,0.013-0.042,0.025c-0.012,0.013-0.018,0.026-0.024,0.042c-0.004,0.01-0.015,0.016-0.017,0.028
		c-0.029,0.206-0.042,0.42-0.042,0.642c0,0.322,0.036,0.663,0.094,1.014h-0.542c-0.63-0.922-1.406-1.612-2.304-2.098
		C32.119,30.633,32.384,30.554,32.648,30.474z M52.726,25.533L52.142,23.4c0.026,0.01,0.054,0.018,0.079,0.029l0.018,0.005
		c0.056,0.016,0.119,0.043,0.181,0.07c0.016,0.053,0.033,0.109,0.04,0.153l0.004,0.015l0.525,1.843
		C52.902,25.521,52.815,25.527,52.726,25.533z M51.99,23.063c-0.001,0-0.002,0-0.002,0c-0.001,0-0.002-0.001-0.003-0.002
		c-0.097-0.027-0.182-0.039-0.255-0.061l-0.01-0.002c-0.184-0.037-0.394-0.074-0.605-0.099c-0.082-0.013-0.166-0.013-0.224-0.023
		c-0.002,0-0.004,0.002-0.007,0.001c-0.002,0-0.003-0.003-0.006-0.003c-0.094-0.007-0.191-0.009-0.289-0.009
		c-0.099,0-0.198,0.002-0.298,0.009c-0.064,0-0.138,0-0.222,0c-0.226,0.012-0.443,0.024-0.674,0.036c-0.005,0-0.018,0-0.041,0
		c-0.001,0-0.001,0.001-0.002,0.001s-0.002-0.001-0.003-0.001c-0.268,0.013-0.536,0.025-0.819,0.049
		c-0.223,0.011-0.453,0.023-0.698,0.048c-0.043,0-0.105,0.002-0.17,0.013c-0.001,0-0.001,0-0.002,0
		c-0.303,0.024-0.605,0.048-0.921,0.073c-0.294,0.024-0.585,0.061-0.873,0.084l-0.031,0.006c-0.009,0.004-0.029,0.006-0.079,0.006
		c-0.003,0-0.005,0.003-0.008,0.003c-0.003,0-0.005-0.003-0.009-0.002h-0.001c-0.277,0.037-0.568,0.073-0.859,0.108
		c-0.337,0.037-0.674,0.084-1.021,0.133c-0.011,0-0.021,0-0.042,0l-0.02,0.002c-0.386,0.06-0.775,0.108-1.179,0.181
		c-0.324,0.049-0.652,0.097-0.994,0.159c0,0-0.001,0.001-0.001,0.001c-0.001,0-0.001,0-0.002,0c-0.003,0-0.004,0.004-0.006,0.004
		c-0.003,0-0.005-0.001-0.008,0c-0.009,0.004-0.042,0.005-0.096,0.02c-0.376,0.061-0.739,0.133-1.099,0.206
		c-0.335,0.06-0.684,0.132-1.03,0.204c-0.006,0-0.009,0.005-0.015,0.006c-0.005,0-0.009-0.004-0.014-0.002v0
		c-0.361,0.084-0.724,0.157-1.102,0.242c-0.29,0.073-0.581,0.133-0.876,0.207c0,0,0,0-0.001,0c-0.062,0.013-0.099,0.025-0.15,0.035
		c-0.295,0.074-0.587,0.147-0.881,0.232c-0.276,0.061-0.553,0.132-0.83,0.217c-0.021,0.003-0.027,0.007-0.034,0.008l0.001,0
		c-0.006,0-0.009,0.005-0.015,0.006c-0.005,0-0.009-0.004-0.015-0.002c-0.001,0-0.001,0.001-0.002,0.001c0,0-0.001,0-0.001,0
		c-0.27,0.073-0.547,0.158-0.823,0.229c-0.293,0.085-0.584,0.17-0.876,0.255c-0.04,0.014-0.071,0.024-0.114,0.035l0,0l0,0
		c0,0-0.001,0-0.001,0c-0.001,0-0.002,0.002-0.003,0.002c-0.001,0-0.002,0-0.003,0v-0.001c-0.282,0.087-0.56,0.184-0.847,0.267
		c-0.264,0.084-0.527,0.168-0.802,0.265c0,0-0.001,0-0.001,0c-0.001,0-0.001,0.001-0.002,0.001c0,0-0.001,0-0.002,0.001
		c-0.001,0-0.001-0.001-0.002,0h0c-0.084,0.024-0.174,0.05-0.276,0.088c-0.299,0.095-0.615,0.205-0.93,0.314
		c-0.246,0.085-0.499,0.183-0.75,0.265c-0.001,0-0.001,0.002-0.003,0.002c-0.001,0-0.001,0-0.002,0
		c-0.111,0.043-0.227,0.085-0.341,0.126c0.105-0.178,0.234-0.328,0.426-0.433c5.43-2.764,11.14-4.149,17.14-4.149
		c1.362,0,2.74,0.071,4.133,0.214c0.371,0.036,0.632,0.184,0.831,0.436c0.019,0.023,0.028,0.056,0.045,0.081
		C52.156,23.122,52.07,23.089,51.99,23.063z M27.291,47.208c0.282,0,0.555,0.001,0.823,0.004c0.278,0.003,0.55,0.005,0.817,0.005
		c3.996-0.001,6.809-0.339,8.457-1.033c0.207-0.094,0.376-0.192,0.547-0.292c0.071,0.496,0.131,1.126,0.165,1.894
		c-0.175,0.292-0.35,0.582-0.522,0.847c-1.834,2.848-3.817,4.752-5.954,5.72c-1.999,0.911-2.921,4.042-2.928,9.357
		c0,1.356,0.062,2.855,0.186,4.5l3.035,39.795c-4.946,3.172-10.301,4.764-16.085,4.764c-1.733,0-3.504-0.146-5.315-0.431
		c-1.047-1.029-1.632-2.361-1.739-4.052C7.19,89.215,6.163,69.265,5.69,48.449C15.051,47.619,22.248,47.208,27.291,47.208z
		 M15.83,113.03L15.83,113.03c5.845,0,11.265-1.612,16.259-4.823c0.435,0.021,0.854,0.03,1.252,0.03
		c2.182,0,3.829-0.286,4.948-0.875c1.119-0.583,1.705-1.503,1.7-2.687c0-0.047,0-0.095-0.002-0.143
		c-1.11-23.964-1.674-39.365-1.674-46.201c0-0.848,0.008-1.563,0.026-2.147c0.064-1.955,0.093-3.675,0.093-5.143
		c0-0.348-0.003-0.667-0.006-0.986c0.07,0.078,0.13,0.159,0.213,0.236c0.963,0.977,2.167,1.466,3.542,1.465c0.002,0,0.005,0,0.005,0
		c1.386,0,2.577-0.489,3.542-1.469c0.136-0.135,0.242-0.286,0.361-0.43c-0.088,0.628-0.144,1.22-0.144,1.748
		c0.001,1.192,0.233,2.122,0.683,2.811c-3.727,6.436-5.849,13.578-6.367,21.401c-0.056,0.764-0.102,1.532-0.124,2.31
		c-0.024,0.526-0.024,1.063-0.024,1.596c-0.002,11.651,3.72,21.796,11.141,30.421l-21.684,1.653l-0.07,0.026
		c-2.525,1.972-6.092,2.974-10.735,2.974c-0.264,0-0.531-0.002-0.801-0.008c-3.227-0.134-5.585-0.867-7.1-2.146
		C12.551,112.891,14.208,113.03,15.83,113.03z M40.64,79.723c0-0.533,0-1.064,0.025-1.575c0-0.017,0.002-0.033,0.002-0.049
		c0.019-0.747,0.071-1.48,0.119-2.214c0.64-8.728,3.506-16.521,8.6-23.413c1.531-2.061,3.242-4.037,5.16-5.943
		c9.286-9.162,20.449-13.746,33.57-13.748c12.783,0.002,23.708,4.346,32.835,13.049c0.005,0.004,0.007,0.008,0.012,0.011
		c0.249,0.225,0.486,0.451,0.723,0.688c2.799,2.774,5.187,5.727,7.136,8.847c0.927,1.458,1.747,2.962,2.481,4.516
		c0.908,1.925,1.686,3.907,2.31,5.96c0.004,0.013,0.009,0.026,0.012,0.04c0.001,0.002,0.003,0.002,0.003,0.004
		c0.001,0.002,0.001,0.004,0.002,0.006c1.299,4.337,1.962,8.939,1.962,13.822c-0.003,12.975-4.633,24.001-13.904,33.181
		c-0.458,0.445-0.904,0.88-1.371,1.3c-8.999,8.308-19.717,12.448-32.2,12.448c-13.121-0.002-24.284-4.585-33.571-13.748
		c-0.928-0.929-1.821-1.869-2.664-2.834C44.384,101.474,40.642,91.383,40.64,79.723z M122.056,113.28
		c9.363-9.264,14.063-20.456,14.062-33.557c0-4.926-0.67-9.576-1.984-13.96c0,0,0-0.001,0-0.001v-0.001
		c-0.417-1.628-0.946-3.314-1.575-5.033c2.423,1.735,4.545,3.387,6.336,4.92c0.71,0.557,1.303,0.851,1.818,0.853
		c0.002,0,0.006,0,0.01,0c0.379,0,0.706-0.182,0.934-0.516c0.29-0.409,0.436-0.892,0.436-1.43c0-0.086-0.021-0.181-0.028-0.271
		c0.087,0.295,0.155,0.609,0.19,0.955l0.205,40.306c0.002,0.088,0.002,0.175,0.002,0.263c-0.021,5.671-2.649,8.43-8.038,8.46h-13.41
		C121.363,113.942,121.708,113.616,122.056,113.28z"/>
	<path fill="#E76E0A" d="M87.679,91.715c3.933-0.01,7.318-1.408,10.101-4.218c2.811-2.783,4.208-6.168,4.219-10.1
		c-0.011-3.947-1.408-7.332-4.219-10.139c-2.784-2.786-6.168-4.184-10.101-4.183c-3.945-0.001-7.33,1.397-10.125,4.183
		c-2.798,2.807-4.196,6.191-4.194,10.137c-0.001,3.933,1.396,7.318,4.194,10.101C80.35,90.307,83.734,91.706,87.679,91.715z
		 M73.623,77.396c0.001-3.883,1.366-7.186,4.117-9.951c2.754-2.74,6.058-4.104,9.939-4.106c3.87,0.001,7.174,1.367,9.915,4.106
		c2.765,2.765,4.128,6.067,4.141,9.952c-0.013,3.868-1.376,7.171-4.14,9.912c-2.742,2.764-6.046,4.129-9.916,4.143
		c-3.882-0.014-7.185-1.379-9.939-4.142c-2.75-2.74-4.114-6.04-4.117-9.905C73.623,77.401,73.623,77.398,73.623,77.396z"/>
	<path fill="#E76E0A" d="M87.667,81.479c0.002,0,0.003,0,0.006,0c1.119,0,2.091-0.406,2.886-1.203
		c0.798-0.783,1.203-1.758,1.202-2.879c0.001-1.122-0.404-2.097-1.202-2.893c-0.796-0.798-1.77-1.201-2.892-1.201
		c-1.122,0-2.096,0.403-2.893,1.201c-0.786,0.799-1.19,1.771-1.189,2.893c-0.001,1.122,0.403,2.094,1.189,2.879
		C85.572,81.074,86.545,81.479,87.667,81.479z M84.963,74.69c0.752-0.752,1.645-1.123,2.705-1.124
		c1.058,0.001,1.952,0.372,2.706,1.125c0.753,0.754,1.123,1.646,1.125,2.705c-0.002,1.059-0.372,1.951-1.124,2.693
		c-0.755,0.752-1.648,1.124-2.707,1.126c-1.06-0.002-1.952-0.374-2.706-1.126c-0.74-0.742-1.112-1.634-1.113-2.693
		C83.85,76.337,84.221,75.444,84.963,74.69z"/>
	<path fill="#E76E0A" d="M87.679,85.922c0.004,0,0.008,0,0.012,0c2.336,0,4.353-0.846,6.003-2.513
		c1.668-1.65,2.515-3.671,2.512-6.013c0.003-2.34-0.844-4.373-2.512-6.04c-1.654-1.654-3.676-2.489-6.015-2.488
		c-2.339-0.001-4.372,0.831-6.038,2.488c0,0,0,0.003-0.001,0.003c-1.657,1.665-2.49,3.698-2.488,6.037
		c-0.002,2.339,0.831,4.36,2.489,6.014C83.306,85.079,85.338,85.925,87.679,85.922z M82.007,71.737
		c0.001-0.001,0.004-0.003,0.005-0.006c1.582-1.566,3.452-2.332,5.667-2.333c2.215,0.002,4.073,0.768,5.642,2.333
		c1.578,1.582,2.355,3.452,2.359,5.666c-0.003,2.215-0.781,4.072-2.359,5.64c-1.57,1.579-3.427,2.357-5.642,2.36
		c-2.214-0.003-4.084-0.781-5.666-2.36c-1.565-1.568-2.331-3.423-2.334-5.64C79.682,75.184,80.446,73.316,82.007,71.737z"/>
	<path fill="#E76E0A" d="M87.679,94.173c0.004,0,0.008,0,0.013,0c4.613,0,8.581-1.646,11.842-4.935
		c3.28-3.264,4.939-7.235,4.935-11.855c0.004-4.618-1.654-8.601-4.935-11.877c-3.265-3.281-7.236-4.927-11.854-4.924
		c-4.63-0.003-8.602,1.643-11.89,4.923c-3.269,3.277-4.914,7.261-4.912,11.878c-0.002,4.619,1.643,8.59,4.912,11.855
		C79.078,92.532,83.049,94.176,87.679,94.173z M76.161,65.878c3.206-3.189,7.013-4.767,11.519-4.769
		c4.494,0.002,8.301,1.58,11.482,4.769c3.19,3.193,4.778,7.013,4.781,11.505c-0.003,4.495-1.591,8.302-4.781,11.482
		c-3.182,3.202-6.988,4.78-11.482,4.784c-4.505-0.004-8.312-1.582-11.519-4.784c-3.176-3.18-4.754-6.987-4.757-11.482
		C71.406,72.891,72.984,69.071,76.161,65.878z"/>
	<path fill="#E76E0A" d="M88.104,124.151c0.003,0,0.008,0,0.012,0c12.39,0,22.996-4.348,31.761-13.017
		c8.771-8.668,13.167-19.159,13.163-31.425c0.004-12.263-4.393-22.753-13.163-31.422c-8.768-8.673-19.377-13.019-31.773-13.017
		c-12.408-0.003-23.018,4.344-31.784,13.017c-8.771,8.668-13.167,19.159-13.164,31.422c-0.002,12.266,4.393,22.757,13.164,31.425
		C65.085,119.806,75.695,124.154,88.104,124.151z M56.688,48.662c8.682-8.581,19.13-12.862,31.415-12.864
		c12.272,0.002,22.721,4.283,31.402,12.864c8.678,8.585,13.005,18.91,13.008,31.048c-0.003,12.139-4.33,22.465-13.008,31.05
		c-8.681,8.582-19.129,12.862-31.402,12.864c-12.285-0.002-22.733-4.282-31.415-12.864c-8.677-8.585-13.004-18.911-13.008-31.05
		C43.684,67.571,48.012,57.247,56.688,48.662z"/>
</g>
<g>
</g>
<g>
</g>
<g>
</g>
<g>
</g>
<g>
</g>
<g>
</g>
</svg>
