<?xml version="1.0" encoding="utf-8"?>
<!-- Generator: Adobe Illustrator 16.0.4, SVG Export Plug-In . SVG Version: 6.00 Build 0)  -->
<!DOCTYPE svg PUBLIC "-//W3C//DTD SVG 1.1//EN" "http://www.w3.org/Graphics/SVG/1.1/DTD/svg11.dtd">
<svg version="1.1" id="Layer_1" xmlns="http://www.w3.org/2000/svg" xmlns:xlink="http://www.w3.org/1999/xlink" x="0px" y="0px"
	 width="48px" height="48px" viewBox="0 0 48 48" enable-background="new 0 0 48 48" xml:space="preserve">
<path fill="#6B6B6B" d="M43.825,48H4.174C1.869,48,0,45.754,0,42.981V5.348C0,2.577,1.869,0.33,4.174,0.33h39.651
	C46.131,0.33,48,2.577,48,5.348v37.633C48,45.754,46.131,48,43.825,48z M45.913,5.348c0-1.385-0.936-2.509-2.088-2.509H4.174
	c-1.152,0-2.087,1.124-2.087,2.509v7.526h43.826V5.348z M45.913,15.384H2.087v27.598c0,1.385,0.935,2.509,2.087,2.509h39.651
	c1.152,0,2.088-1.124,2.088-2.509V15.384z M41.739,32.946h-2.087c-0.576,0-1.044-0.562-1.044-1.255v-2.509
	c0-0.692,0.468-1.255,1.044-1.255h2.087c0.576,0,1.043,0.562,1.043,1.255v2.509C42.782,32.385,42.315,32.946,41.739,32.946z
	 M41.739,24.165h-2.087c-0.576,0-1.044-0.561-1.044-1.255v-2.509c0-0.693,0.468-1.254,1.044-1.254h2.087
	c0.576,0,1.043,0.561,1.043,1.254v2.509C42.782,23.604,42.315,24.165,41.739,24.165z M33.391,32.946h-2.087
	c-0.575,0-1.043-0.562-1.043-1.255v-2.509c0-0.692,0.468-1.255,1.043-1.255h2.087c0.577,0,1.044,0.562,1.044,1.255v2.509
	C34.435,32.385,33.968,32.946,33.391,32.946z M33.391,24.165h-2.087c-0.575,0-1.043-0.561-1.043-1.255v-2.509
	c0-0.693,0.468-1.254,1.043-1.254h2.087c0.577,0,1.044,0.561,1.044,1.254v2.509C34.435,23.604,33.968,24.165,33.391,24.165z
	 M25.043,32.946h-2.086c-0.578,0-1.044-0.562-1.044-1.255v-2.509c0-0.692,0.466-1.255,1.044-1.255h2.086
	c0.577,0,1.044,0.562,1.044,1.255v2.509C26.087,32.385,25.62,32.946,25.043,32.946z M25.043,24.165h-2.086
	c-0.578,0-1.044-0.561-1.044-1.255v-2.509c0-0.693,0.466-1.254,1.044-1.254h2.086c0.577,0,1.044,0.561,1.044,1.254v2.509
	C26.087,23.604,25.62,24.165,25.043,24.165z M16.695,41.727h-2.086c-0.578,0-1.043-0.561-1.043-1.254v-2.508
	c0-0.694,0.466-1.255,1.043-1.255h2.086c0.577,0,1.044,0.561,1.044,1.255v2.508C17.739,41.166,17.272,41.727,16.695,41.727z
	 M16.695,32.946h-2.086c-0.578,0-1.043-0.562-1.043-1.255v-2.509c0-0.692,0.466-1.255,1.043-1.255h2.086
	c0.577,0,1.044,0.562,1.044,1.255v2.509C17.739,32.385,17.272,32.946,16.695,32.946z M16.695,24.165h-2.086
	c-0.578,0-1.043-0.561-1.043-1.255v-2.509c0-0.693,0.466-1.254,1.043-1.254h2.086c0.577,0,1.044,0.561,1.044,1.254v2.509
	C17.739,23.604,17.272,24.165,16.695,24.165z M8.348,41.727H6.261c-0.577,0-1.043-0.561-1.043-1.254v-2.508
	c0-0.694,0.466-1.255,1.043-1.255h2.087c0.577,0,1.043,0.561,1.043,1.255v2.508C9.391,41.166,8.925,41.727,8.348,41.727z
	 M8.348,32.946H6.261c-0.577,0-1.043-0.562-1.043-1.255v-2.509c0-0.692,0.466-1.255,1.043-1.255h2.087
	c0.577,0,1.043,0.562,1.043,1.255v2.509C9.391,32.385,8.925,32.946,8.348,32.946z M22.957,36.71h2.086
	c0.577,0,1.044,0.561,1.044,1.255v2.508c0,0.693-0.467,1.254-1.044,1.254h-2.086c-0.578,0-1.044-0.561-1.044-1.254v-2.508
	C21.913,37.271,22.379,36.71,22.957,36.71z"/>
</svg>
