<?xml version="1.0" encoding="utf-8"?>
<!-- Generator: Adobe Illustrator 16.0.4, SVG Export Plug-In . SVG Version: 6.00 Build 0)  -->
<!DOCTYPE svg PUBLIC "-//W3C//DTD SVG 1.1//EN" "http://www.w3.org/Graphics/SVG/1.1/DTD/svg11.dtd">
<svg version="1.1" id="Layer_1" xmlns="http://www.w3.org/2000/svg" xmlns:xlink="http://www.w3.org/1999/xlink" x="0px" y="0px"
	 width="250.667px" height="300.667px" viewBox="-30.167 -24.167 250.667 300.667"
	 enable-background="new -30.167 -24.167 250.667 300.667" xml:space="preserve">
<path fill="#6B6B6B" d="M197.945,227.5H-8.441c-11.996,0-21.725-11.826-21.725-26.43V2.917c0-14.59,9.729-26.422,21.725-26.422
	h206.387c12.001,0,21.729,11.832,21.729,26.422V201.07C219.675,215.674,209.946,227.5,197.945,227.5z M208.812,2.917
	c0-7.294-4.875-13.212-10.867-13.212H-8.441c-5.996,0-10.863,5.918-10.863,13.212v39.627h228.117V2.917z M208.812,55.761H-19.304
	V201.08c0,7.291,4.867,13.21,10.863,13.21h206.387c5.992,0,10.867-5.919,10.867-13.21V55.761z M187.082,148.23h-10.857
	c-2.999,0-5.438-2.957-5.438-6.603v-13.216c0-3.64,2.439-6.607,5.438-6.607h10.857c2.999,0,5.434,2.962,5.434,6.607v13.216
	C192.516,145.278,190.081,148.23,187.082,148.23z M187.082,101.998h-10.857c-2.999,0-5.438-2.954-5.438-6.608V82.178
	c0-3.648,2.439-6.604,5.438-6.604h10.857c2.999,0,5.434,2.955,5.434,6.604V95.39C192.516,99.044,190.081,101.998,187.082,101.998z
	 M143.633,148.23h-10.857c-2.999,0-5.429-2.957-5.429-6.603v-13.216c0-3.64,2.43-6.607,5.429-6.607h10.857
	c3.004,0,5.438,2.962,5.438,6.607v13.216C149.071,145.278,146.637,148.23,143.633,148.23z M143.633,101.998h-10.857
	c-2.999,0-5.429-2.954-5.429-6.608V82.178c0-3.648,2.43-6.604,5.429-6.604h10.857c3.004,0,5.438,2.955,5.438,6.604V95.39
	C149.071,99.044,146.637,101.998,143.633,101.998z M100.183,148.23H89.325c-3.009,0-5.434-2.957-5.434-6.603v-13.216
	c0-3.64,2.425-6.607,5.434-6.607h10.857c3.004,0,5.434,2.962,5.434,6.607v13.216C105.616,145.278,103.187,148.23,100.183,148.23z
	 M100.183,101.998H89.325c-3.009,0-5.434-2.954-5.434-6.608V82.178c0-3.648,2.425-6.604,5.434-6.604h10.857
	c3.004,0,5.434,2.955,5.434,6.604V95.39C105.616,99.044,103.187,101.998,100.183,101.998z M56.73,194.467H45.873
	c-3.007,0-5.429-2.951-5.429-6.602V174.66c0-3.651,2.428-6.608,5.429-6.608H56.73c3.004,0,5.434,2.957,5.434,6.608v13.205
	C62.164,191.516,59.734,194.467,56.73,194.467z M56.73,148.23H45.873c-3.007,0-5.429-2.957-5.429-6.603v-13.216
	c0-3.64,2.428-6.607,5.429-6.607H56.73c3.004,0,5.434,2.962,5.434,6.607v13.216C62.164,145.278,59.734,148.23,56.73,148.23z
	 M56.73,101.998H45.873c-3.007,0-5.429-2.954-5.429-6.608V82.178c0-3.648,2.428-6.604,5.429-6.604H56.73
	c3.004,0,5.434,2.955,5.434,6.604V95.39C62.164,99.044,59.734,101.998,56.73,101.998z M13.286,194.467H2.423
	c-3.004,0-5.431-2.951-5.431-6.602V174.66c0-3.651,2.427-6.608,5.431-6.608h10.862c3.001,0,5.429,2.957,5.429,6.608v13.205
	C18.714,191.516,16.287,194.467,13.286,194.467z M13.286,148.23H2.423c-3.004,0-5.431-2.957-5.431-6.603v-13.216
	c0-3.64,2.427-6.607,5.431-6.607h10.862c3.001,0,5.429,2.962,5.429,6.607v13.216C18.714,145.278,16.287,148.23,13.286,148.23z
	 M89.325,168.052h10.857c3.004,0,5.434,2.957,5.434,6.608v13.205c0,3.65-2.43,6.602-5.434,6.602H89.325
	c-3.009,0-5.434-2.951-5.434-6.602V174.66C83.892,171.009,86.316,168.052,89.325,168.052z"/>
<text transform="matrix(1 0 0 1 32.833 269.5)" fill="#6B6B6B" font-family="'Verlag-Book'" font-size="48">Events</text>
</svg>
