<?xml version="1.0" encoding="utf-8"?>
<!-- Generator: Adobe Illustrator 16.0.4, SVG Export Plug-In . SVG Version: 6.00 Build 0)  -->
<!DOCTYPE svg PUBLIC "-//W3C//DTD SVG 1.1//EN" "http://www.w3.org/Graphics/SVG/1.1/DTD/svg11.dtd">
<svg version="1.1" id="Layer_1" xmlns="http://www.w3.org/2000/svg" xmlns:xlink="http://www.w3.org/1999/xlink" x="0px" y="0px"
	 width="48px" height="48px" viewBox="0 0 48 48" enable-background="new 0 0 48 48" xml:space="preserve">
<path fill="none" d="M-7.833-8.5h62.667v64.667H-7.833V-8.5z"/>
<path fill="#6B6B6B" d="M24,24.507c3.307,0,6-2.708,6-6.062c0-3.341-2.692-6.062-6-6.062c-3.307,0-6,2.721-6,6.062
	C18,21.799,20.694,24.507,24,24.507z M36,35.284c0-4.041-8-6.062-12-6.062c-4,0-12,2.021-12,6.062v2.021h24V35.284z M42.667-0.417
	H5.334C2.387-0.417,0,1.995,0,4.973v37.723c0,2.977,2.387,5.388,5.334,5.388h37.333c2.946,0,5.333-2.411,5.333-5.388V4.973
	C48,1.995,45.613-0.417,42.667-0.417z M42.667,42.695H5.334V4.973h37.333V42.695z"/>
</svg>
