<?xml version="1.0" encoding="utf-8"?>
<!-- Generator: Adobe Illustrator 16.0.4, SVG Export Plug-In . SVG Version: 6.00 Build 0)  -->
<!DOCTYPE svg PUBLIC "-//W3C//DTD SVG 1.1//EN" "http://www.w3.org/Graphics/SVG/1.1/DTD/svg11.dtd">
<svg version="1.1" id="Layer_1" xmlns="http://www.w3.org/2000/svg" xmlns:xlink="http://www.w3.org/1999/xlink" x="0px" y="0px"
	 width="249.5px" height="300.5px" viewBox="0 0 249.5 300.5" enable-background="new 0 0 249.5 300.5" xml:space="preserve">
<path fill="none" d="M-7.833-8.5h62.667v64.667H-7.833V-8.5z"/>
<path fill="#6B6B6B" d="M123.712,126.768c17.045,0,30.928-13.819,30.928-30.935c0-17.048-13.873-30.934-30.928-30.934
	c-17.047,0-30.928,13.886-30.928,30.934C92.784,112.948,106.67,126.768,123.712,126.768z M185.568,181.763
	c0-20.62-41.238-30.931-61.856-30.931s-61.856,10.311-61.856,30.931v10.311h123.713V181.763z M219.934-0.417H27.495
	C12.305-0.417,0,11.892,0,27.089v192.492c0,15.194,12.305,27.498,27.495,27.498h192.438c15.188,0,27.49-12.304,27.49-27.498V27.089
	C247.424,11.892,235.121-0.417,219.934-0.417z M219.934,219.581H27.495V27.089h192.438V219.581z"/>
<text transform="matrix(1 0 0 1 51.5 290.9082)" fill="#6B6B6B" font-family="'Verlag-Book'" font-size="48">Portraits</text>
</svg>
