<?xml version="1.0" encoding="utf-8"?>
<!-- Generator: Adobe Illustrator 16.0.4, SVG Export Plug-In . SVG Version: 6.00 Build 0)  -->
<!DOCTYPE svg PUBLIC "-//W3C//DTD SVG 1.1//EN" "http://www.w3.org/Graphics/SVG/1.1/DTD/svg11.dtd">
<svg version="1.1" id="Layer_1" xmlns="http://www.w3.org/2000/svg" xmlns:xlink="http://www.w3.org/1999/xlink" x="0px" y="0px"
	 width="250px" height="250px" viewBox="0 0 250 250" enable-background="new 0 0 250 250" xml:space="preserve">
<g>
	<path fill="#6B6B6B" d="M229.688,40.625c-21.875-26.172-60.155-35.547-94.141-23.438l-1.562-4.688
		c-1.562-3.906-3.905-6.641-6.641-7.422c-1.172-0.391-3.906-0.391-6.25,1.562l-1.172,1.172c0,0,0,0.391-0.391,0.391l0.781-3.516l0,0
		V4.297c0,0,0,0,0-0.391c0-0.391,0-0.391-0.391-0.781l0,0l0,0c0-0.391-0.391-0.391-0.781-0.391c0,0,0,0-0.391,0h-0.391l0,0
		l-14.062-0.391c-0.391,0-0.781,0-1.172,0.391L85.938,16.797c-0.391,0.391-0.391,0.781-0.781,1.172l-2.734,14.062
		c0,0.391,0,1.172,0.391,1.562c0.391,0.39,0.781,0.391,1.562,0.391l0,0h4.688c-0.391,0.391-0.781,0.391-1.172,0.781l-1.172,1.172
		c-2.734,2.344-2.734,4.688-2.734,5.859c0.391,2.734,2.344,5.469,6.25,7.812l4.297,2.344c-5.469,9.375-8.984,20.312-10.547,31.25
		v0.391c-19.531,0-38.281,6.641-53.125,19.531c-35.156,29.688-39.844,82.03-10.156,117.188C37.109,239.844,60.938,250,84.375,250
		c18.75,0,37.891-6.25,53.516-19.531c15.625-13.281,25.781-31.641,28.906-51.562v-0.392c17.188,0,33.984-5.469,48.438-16.016
		c19.142-14.062,30.859-34.375,33.984-57.812C251.562,81.641,244.531,58.203,229.688,40.625z M117.969,26.172l-2.344,1.953
		l1.562-7.812L117.969,26.172z M108.984,14.453l6.641-5.078L112.5,25L108.984,14.453z M109.375,27.344l-9.766-5.469l6.25-5.078
		L109.375,27.344z M97.266,18.75l0.391-5.078l5.469,0.781L97.266,18.75z M96.094,25l9.766,5.469H89.453L96.094,25z M105.078,5.859
		h8.203l-5.859,4.688h-0.391l-6.641-0.781L105.078,5.859z M93.359,15.625l-0.391,6.641l0,0l-5.859,4.688l1.953-7.422L93.359,15.625z
		 M108.594,33.984l-2.344,1.953l-6.641-1.953H108.594z M132.422,224.609c-32.031,26.562-79.688,22.656-106.25-9.375
		c-12.891-15.625-19.141-35.156-17.188-55.078c1.562-19.922,11.328-38.281,26.562-51.172C50,96.875,68.75,90.625,87.5,91.406
		c21.094,0.781,41.016,10.938,54.297,26.953c8.594,10.157,14.062,22.266,16.406,35.157c-3.125-0.392-5.859-0.781-8.984-1.562
		c-2.344-10.156-7.031-19.922-14.062-27.734c-8.203-9.766-19.141-16.797-31.25-20.703c-5.469-1.562-11.328-2.734-16.797-2.734l0,0
		v-0.391l0,0c-16.797-0.781-32.812,4.688-45.703,15.625c-28.516,23.828-32.031,66.016-8.203,94.531
		c13.281,15.625,32.422,23.828,51.562,23.828c15.234,0,30.469-5.078,42.968-15.625c12.5-10.547,20.703-25,23.048-41.016
		c2.733,0.391,5.469,0.781,8.202,1.172C155.859,196.094,146.484,212.891,132.422,224.609z M166.016,153.906
		c-2.344-14.844-8.594-28.906-18.358-40.625c-10.938-12.891-25.391-21.875-41.016-26.562v-0.391
		c1.953-14.453,9.375-27.734,20.703-37.109c12.109-10.156,27.344-14.844,43.359-13.672c15.625,1.562,30.078,8.984,40.234,21.094
		c10.155,12.11,14.844,27.343,13.672,43.359c-1.562,15.625-8.984,30.078-21.094,40.234
		C192.969,148.828,179.688,153.516,166.016,153.906z M140.234,148.047c-7.812-3.516-14.453-8.984-20.312-15.625
		c-4.688-5.859-8.594-12.5-10.938-19.531c7.812,3.516,14.844,8.984,20.312,15.625C134.375,134.375,137.891,141.016,140.234,148.047z
		 M83.594,107.422c2.344,17.188,9.375,32.812,21.094,44.922c10.547,11.328,23.828,18.75,37.891,22.656c0,0,0,0,0,0.391
		c-1.953,14.453-9.375,27.344-20.703,36.719c-25,21.095-62.5,17.578-83.594-7.422c-21.094-25-17.578-62.5,7.422-83.593
		C56.641,112.5,69.531,107.812,83.594,107.422z M241.016,103.516c-2.733,21.094-13.281,39.843-30.858,52.343
		c-30.47,22.656-73.438,18.75-99.609-8.594c-10.156-10.547-16.797-24.219-19.141-39.062c2.734,0.391,5.859,0.781,8.594,1.953
		c2.344,10.156,7.031,19.922,14.062,27.733c8.203,9.767,18.75,16.797,30.859,20.703h0.391c4.688,1.562,9.375,2.344,14.453,2.734
		c1.172,0,2.344,0,3.517,0c0,0,0,0,0.391,0l0,0c0.781,0,1.562,0,2.345,0c15.625,0,30.858-5.469,42.969-15.625
		c13.672-11.328,22.266-27.734,23.828-45.703c1.562-17.969-3.906-35.156-15.625-48.828c-11.328-13.672-27.734-22.266-45.703-23.828
		c-17.969-1.562-35.156,3.906-48.828,15.625c-12.5,10.547-20.703,25.391-23.438,41.797c-2.344-0.391-5.078-0.781-7.422-1.172
		c1.562-11.328,5.469-21.875,11.719-31.641c0.391-0.781,0.781-1.953,0.391-3.125c-0.39-1.172-1.172-1.562-2.344-1.953l-7.422-4.297
		c-0.781-0.391-1.562-0.781-1.953-1.172l0.781-0.391c0.391-0.391,1.172-0.391,1.953,0c0.391,0,0.391,0.391,0.781,0.391l10.156,3.125
		c1.172,0.391,2.734,0,3.516-0.781l15.234-12.891c1.172-0.781,1.562-2.344,1.172-3.516l-1.172-10.547c0-0.391,0-0.781-0.391-0.781
		c-0.391-0.781,0-1.562,0.391-1.953l0.781-0.391c0.391,0.391,0.781,1.172,0.781,1.953l3.516,7.812
		c0.392,1.172,1.172,1.953,1.953,2.344c0.781,0.391,1.953,0.391,3.125,0c31.642-12.891,68.359-4.688,89.062,19.922
		C237.5,61.719,243.359,82.422,241.016,103.516z"/>
</g>
</svg>
