<?xml version="1.0" encoding="utf-8"?>
<!-- Generator: Adobe Illustrator 16.0.4, SVG Export Plug-In . SVG Version: 6.00 Build 0)  -->
<!DOCTYPE svg PUBLIC "-//W3C//DTD SVG 1.1//EN" "http://www.w3.org/Graphics/SVG/1.1/DTD/svg11.dtd">
<svg version="1.1" id="Layer_1" xmlns="http://www.w3.org/2000/svg" xmlns:xlink="http://www.w3.org/1999/xlink" x="0px" y="0px"
	 width="727.5px" height="168.188px" viewBox="0 40.894 727.5 168.188" enable-background="new 0 40.894 727.5 168.188"
	 xml:space="preserve">
<g>
	<path fill="#6B6B6B" d="M244.873,209.082H5.127c-2.832,0-5.127-2.295-5.127-5.127V46.045c0-2.832,2.295-5.127,5.127-5.127h239.697
		c2.832,0,5.127,2.295,5.127,5.127v157.861C250,206.787,247.705,209.082,244.873,209.082z M10.303,198.779h229.395V51.221H10.303
		V198.779z"/>
	<path fill="#6B6B6B" d="M125,130.127c-0.977,0-1.953-0.293-2.832-0.83L2.295,50.342c-2.393-1.562-3.027-4.736-1.465-7.129
		s4.736-3.027,7.129-1.465L125,118.848l117.041-77.1c2.393-1.562,5.566-0.928,7.129,1.465s0.928,5.566-1.465,7.129l-119.873,78.955
		C126.953,129.883,125.977,130.127,125,130.127z"/>
	<path fill="#6B6B6B" d="M5.176,209.082c-1.416,0-2.881-0.586-3.906-1.758c-1.855-2.148-1.66-5.42,0.488-7.275l103.271-89.893
		c2.148-1.855,5.42-1.66,7.275,0.488s1.66,5.42-0.488,7.275L8.545,207.812C7.568,208.691,6.348,209.082,5.176,209.082z"/>
	<path fill="#6B6B6B" d="M244.824,209.082c-1.221,0-2.393-0.439-3.369-1.27l-103.223-89.844c-2.148-1.855-2.393-5.127-0.488-7.275
		c1.855-2.148,5.127-2.393,7.275-0.488l103.271,89.893c2.148,1.855,2.393,5.127,0.488,7.275
		C247.705,208.496,246.289,209.082,244.824,209.082z"/>
</g>
<text transform="matrix(1 0 0 1 276.5 150.5)" fill="#6B6B6B" font-family="'Verlag-Book'" font-size="90">Contact Us...</text>
</svg>
